<?xml version="1.0" encoding="utf-8"?>
<!-- Generator: Adobe Illustrator 24.2.1, SVG Export Plug-In . SVG Version: 6.00 Build 0)  -->
<svg version="1.1" id="Layer_1" xmlns="http://www.w3.org/2000/svg" xmlns:xlink="http://www.w3.org/1999/xlink" x="0px" y="0px"
	 viewBox="0 0 612 792" style="enable-background:new 0 0 612 792;" xml:space="preserve">
<style type="text/css">
	.st0{fill:#F5F8FA;stroke:#FFFFFF;stroke-miterlimit:10;}
</style>
<path class="st0" d="M196.3,202.1c83.9-5.2,119.8,9.7,156.9,25.8c40.2,17.3,122.3,52.8,170.6,140.4c0,0,44.3,80.3,27.5,162.7
	c-2.6,12.8-11.7,40.8-33.8,50.6c-9.7,4.3-68.1,8.2-72,8.2c-57.9,0-37.2,0.4-129.7-1.3c-40-0.8-59.5-7.9-82.2-18.1
	c-59-26.5-88.7-75.9-113.8-119.1c-37.7-64.6-85.6-146.9-51.1-202.1C90.5,214.2,159.8,204.4,196.3,202.1z"/>
</svg>
