<?xml version="1.0" encoding="utf-8"?>
<!-- Generator: Adobe Illustrator 24.2.1, SVG Export Plug-In . SVG Version: 6.00 Build 0)  -->
<svg version="1.1" id="Layer_1" xmlns="http://www.w3.org/2000/svg" xmlns:xlink="http://www.w3.org/1999/xlink" x="0px" y="0px"
	 viewBox="0 0 1600 792" style="enable-background:new 0 0 1600 792;" xml:space="preserve">
<style type="text/css">
	.st0{fill:#543D98;stroke:#543D98;stroke-miterlimit:10;}
	.st1{fill:#FFFFFF;}
	.st2{fill:none;stroke:#543E98;stroke-width:27;stroke-miterlimit:10;}
</style>
<path class="st0" d="M1281.5,254.6L1194,255c-10,0-19.6,4.2-26.4,11.5l-55.7,59.5c-14.1,15-3.6,39.6,16.9,39.9l122.5,1.7
	c10.5,0.1,18.9,8.8,18.8,19.3l0,0.4c-0.1,10.5-8.6,19-19.1,19l-172.6,0l2.3,4.9c3,6.4,9.4,10.5,16.4,10.6l32.5,0.2
	c7,0,13.4,4.1,16.4,10.5l1.3,2.8c2.9,6.3,9.2,10.4,16.1,10.5l84.8,1.6c10.4,0.2,20.3-4,27.4-11.7l58-62.5
	c14-15.1,3.4-39.6-17.1-39.8l-121.4-1.3c-10.5-0.1-19-8.7-18.9-19.3l0-1.4c0.1-10.5,8.7-19,19.2-18.9l170.8,1.1l-2.5-5.8
	c-2.9-6.8-9.5-11.1-16.8-11.1l-31.6,0.1c-6.7,0-12.8-3.7-16-9.6l-1.7-3.2C1294.4,258.2,1288.2,254.6,1281.5,254.6z"/>
<path class="st0" d="M960.2,340.6H653.1c-7.4,0-13.4-6.2-13.5-13.9l-0.6-70.1c-0.1-7.7-6.1-13.9-13.5-13.9h-2.4
	c-7.4,0-13.5,6.3-13.5,14.1V328c0,23.3,18.1,42.2,40.4,42.2h281.8C947.5,370.2,960.2,356.9,960.2,340.6L960.2,340.6"/>
<path class="st0" d="M549.4,282.4h-61.8c-7.1,0-12.9,6-13,13.5v0.1c0,7.4,5.7,13.5,12.9,13.5h0.3c3.2-11,13.4-18.6,24.9-18.6h26.3
	c14,0,25.4,11.6,25.4,26v0.4c0,9.8-5.3,18.3-13.1,22.8c-3.5,2.4-7.7,3.8-12.3,3.8l-64.4-0.2c-7.2,0-12.9-6.1-12.9-13.6l0-9.5
	c0-21.4-16.5-38.8-37-38.8h-52.1c-20.4,0-37,17.3-37,38.7v9.9c0,7.4-5.7,13.5-12.8,13.5l-14.1,0.2c-7.2,0.1-13-5.9-13.1-13.4v0
	c-0.1-7.4-5.8-13.4-12.9-13.4h-4.1c-7.1,0-12.9,6-13,13.4l1.1,74.8c0.5,35.4-26.8,64.4-60.7,64.3l-5.1,0
	c-33.3-0.1-60.3-28.2-60.4-63l-0.3-74c-0.1-7.5-5.9-13.5-13.1-13.4l-2.6,0c-7.1,0.1-12.8,6.1-12.8,13.5v49.3c0,52.5,40.7,95,90.9,95
	h4.6c49.3,0,89.2-41.6,89.5-93.1c0-3.7,1.5-7.1,3.8-9.6c2.4-2.5,5.6-4,9.2-4h240c22.3,0,40.4-18.9,40.4-42.2v-3.8
	C589.8,301.3,571.7,282.4,549.4,282.4z M437.2,316.6c0,14.4-11.6,26-26,26h-27.3c-7.2,0-13.8-2.9-18.5-7.7
	c-4.8-4.7-7.7-11.3-7.7-18.5c0-14.5,11.7-26.2,26.2-26.2h27.3c14.4,0,26,11.6,26,26V316.6z"/>
<path class="st1" d="M374.2,290.2L374.2,290.2z"/>
<path class="st1" d="M398.3,290.2L398.3,290.2z"/>
<path class="st1" d="M398.3,290.2L398.3,290.2z"/>
<path class="st1" d="M407.7,290.2L407.7,290.2z"/>
<ellipse class="st0" cx="528.1" cy="258" rx="14.7" ry="15.4"/>
<ellipse class="st0" cx="675.2" cy="258" rx="14.7" ry="15.4"/>
<ellipse class="st0" cx="717.6" cy="258" rx="14.7" ry="15.4"/>
<ellipse class="st0" cx="760.2" cy="258" rx="14.7" ry="15.4"/>
<circle class="st2" cx="1222.7" cy="354.1" r="190.1"/>
</svg>
