<?xml version="1.0" encoding="utf-8"?>
<!-- Generator: Adobe Illustrator 24.3.0, SVG Export Plug-In . SVG Version: 6.00 Build 0)  -->
<svg version="1.1" id="Layer_1" xmlns="http://www.w3.org/2000/svg" xmlns:xlink="http://www.w3.org/1999/xlink" x="0px" y="0px"
	 viewBox="0 0 640 480" style="enable-background:new 0 0 640 480;" xml:space="preserve">
<style type="text/css">
	.st0{fill:#6466AE;stroke:#6466AE;stroke-miterlimit:10;}
	.st1{fill:#6466AF;stroke:#6466AF;stroke-miterlimit:10;}
	.st2{fill:#6466AF;}
	.st3{fill:#6466AE;}
	.st4{fill:#FFFFFF;}
</style>
<path class="st0" d="M372.9,125.5L372.9,125.5c0-4-2.3-7.6-5.8-9.1l-40.6-17.7c-7.6-3.3-16.1-3.3-23.6,0l-36.2,15.8
	c-4.6,2-7.6,6.7-7.6,11.9v2c0,5.2,2.9,9.8,7.5,11.9l60,26.9c7.6,3.4,7.7,14.6,0.2,18.1l-0.9,0.4c-2.4,1.1-5.1,1.2-7.5,0.1
	l-86.9-37.7V113c0-3.4,2-6.6,5-7.9L312,71.6c2-0.9,4.4-0.9,6.4,0l76.7,33.9c3,1.3,5,4.5,5,7.9v30.1l-21.3-8.9
	C375.3,133.1,372.9,129.5,372.9,125.5z"/>
<path class="st1" d="M264.9,187.2l38.9,17.4c7.7,3.4,16.3,3.5,24,0.1l37.5-16.5c4.6-2,7.6-6.7,7.6-11.9v-2.2c0-5.2-3-9.9-7.6-11.9
	l-59-25.8c-8.2-3.6-8.2-15.8,0-19.4l0.2-0.1c2.5-1.1,5.3-1.1,7.8,0l85.8,37.8v35.2c0,3.5-2,6.6-5.1,7.9l-76.1,32.7
	c-2,0.9-4.3,0.9-6.3,0l-76.1-33.2c-3.1-1.3-5-4.5-5-7.9v-30.9l21.2,9.4c3.7,1.6,6.1,5.5,6.1,9.7l0,0
	C258.8,181.7,261.2,185.5,264.9,187.2z"/>
<path d="M558.6,231.9"/>
<path class="st2" d="M579.3,326.8H391.8c-4.5,0-8.2-3.8-8.2-8.5l-0.4-42.8c0-4.7-3.7-8.5-8.2-8.5h-1.5c-4.5,0-8.2,3.8-8.2,8.6v43.5
	c0,14.2,11,25.8,24.7,25.8h172.1C571.5,344.9,579.3,336.8,579.3,326.8L579.3,326.8"/>
<path class="st3" d="M115.6,405.7c-20.3,0-36.8-17.2-36.9-38.5L78.5,322c0-4.6-3.6-8.2-8-8.2h-1.6c-4.3,0-7.8,3.7-7.8,8.3v30.1
	c0,32,24.8,58,55.5,58h2.8c30.1,0,54.5-25.4,54.6-56.9l0,0c0-4.6,3.6-8.3,7.9-8.3h146.5c13.6,0,24.7-11.5,24.7-25.8v-2.3
	c0-14.2-11-25.8-24.7-25.8h-37.8c-4.4,0-7.9,3.7-7.9,8.2l0,0c0,4.6,3.5,8.3,7.9,8.3l38.8,0.3c3.4,0,6.1,2.8,6.1,6.3l0,0
	c0.1,7.9-6,14.4-13.6,14.4l-39.3-0.1c-4.4,0-7.9-3.7-7.9-8.3v-5.8c0-13.1-10.1-23.7-22.6-23.7h-31.8c-12.5,0-22.6,10.6-22.6,23.6
	v6.1c0,4.5-3.5,8.2-7.8,8.3l-8.6,0.1c-4.4,0.1-8-3.6-8-8.2l0,0c0-4.5-3.6-8.2-7.9-8.2h-2.5c-4.3,0-7.9,3.6-7.9,8.2l0.7,45.7
	c0.3,21.6-16.4,39.3-37.1,39.3L115.6,405.7z"/>
<path class="st4" d="M311.9,328.8h8.2c8.7,0,15.8-7.1,15.8-15.8v-1.3c0-8.7-7.1-15.8-15.8-15.8h-9.5c-8.7,0-15.8,7.1-15.8,15.8l0,0
	C294.9,321.2,302.5,328.8,311.9,328.8z"/>
<path class="st4" d="M229.8,328.6h12.7c9,0,16.3-7.3,16.3-16.3l0,0c0-9-7.3-16.3-16.3-16.3h-12.8c-9,0-16.3,7.3-16.3,16.3l0,0
	C213.5,321.3,220.8,328.6,229.8,328.6z"/>
<ellipse class="st2" cx="315.4" cy="276.4" rx="9" ry="9.4"/>
<ellipse class="st2" cx="405.2" cy="276.4" rx="9" ry="9.4"/>
<ellipse class="st2" cx="431.1" cy="276.4" rx="9" ry="9.4"/>
<ellipse class="st2" cx="457.1" cy="276.4" rx="9" ry="9.4"/>
</svg>
