<?xml version="1.0" encoding="utf-8"?>
<!-- Generator: Adobe Illustrator 24.3.0, SVG Export Plug-In . SVG Version: 6.00 Build 0)  -->
<svg version="1.1" id="Layer_1" xmlns="http://www.w3.org/2000/svg" xmlns:xlink="http://www.w3.org/1999/xlink" x="0px" y="0px"
	 viewBox="0 0 640 480" style="enable-background:new 0 0 640 480;" xml:space="preserve">
<style type="text/css">
	.st0{fill:#6366AF;}
</style>
<path class="st0" d="M391.95,152.79c1.8-1,3.9-1.5,5.9-1.3c4.4,0.4,13.5,1.6,25.3,2.3c0.6,0,1.9,0.5,2.4,2.1c0,0,1.3,2.8-1,3.9
	c-22.2,10.5-45.7,31.8-45.7,31.8c-12.9,11.2-22.2,19.9-40.4,41.1c-27.9,32.5-40.7,59.7-52.5,58.4c-18.8-2.1-19.4-2.4-20.7-5
	c-26.7-55-10-19.3-22.7-48.1c-0.6-1.4-1.3-5.6-0.2-8.7c2.1-5.6,11.3-8.7,17.9-8c6.5,0.6,9.5,1.8,16.2,13.1c5.6,9.5,9.6,21,11,19.5
	c8.1-9.1,14.6-20.8,28.6-35c20.3-20.6,25.2-28.2,43.5-43.7C377.65,159.89,384.25,157.29,391.95,152.79z"/>
<path class="st0" d="M339.59,183.8l16.5-15.9l-132.5-0.3c-5.5,0-10,4.5-10,10v141.7c0,5.5,4.5,10,10,10h140.2c5.5,0,10-4.5,10-10
	v-95.9l-17.7,17.7v71.3h-126.3V184.6L339.59,183.8z"/>
</svg>
