<?xml version="1.0" encoding="utf-8"?>
<!-- Generator: Adobe Illustrator 24.2.1, SVG Export Plug-In . SVG Version: 6.00 Build 0)  -->
<svg version="1.1" id="Layer_1" xmlns="http://www.w3.org/2000/svg" xmlns:xlink="http://www.w3.org/1999/xlink" x="0px" y="0px"
	 viewBox="0 0 500 500" style="enable-background:new 0 0 500 500;" xml:space="preserve">
<style type="text/css">
	.st0{fill:#F5F5F5;}
	.st1{fill:#7D47FF;}
	.st2{opacity:0.2;enable-background:new    ;}
	.st3{fill:#FFFFFF;}
	.st4{opacity:0.6;fill:#FFFFFF;enable-background:new    ;}
	.st5{opacity:5.000000e-02;enable-background:new    ;}
	.st6{fill:#37474F;}
	.st7{fill:#455A64;}
	.st8{opacity:0.5;fill:#FFFFFF;enable-background:new    ;}
	.st9{fill:#FFA8A7;}
	.st10{fill:#F28F8F;}
	.st11{opacity:0.1;enable-background:new    ;}
	.st12{fill:#263238;}
	.st13{opacity:0.75;fill:#FFFFFF;enable-background:new    ;}
	.st14{opacity:0.3;enable-background:new    ;}
	.st15{fill:#FAFAFA;}
	.st16{opacity:0.5;enable-background:new    ;}
	.st17{opacity:0.4;enable-background:new    ;}
	.st18{opacity:0.25;enable-background:new    ;}
	.st19{fill:#E0E0E0;}
	.st20{fill:#F0F0F0;}
	.st21{opacity:0.15;fill:#7D47FF;enable-background:new    ;}
	.st22{opacity:0.3;}
	.st23{opacity:0.5;}
	.st24{opacity:0.15;}
</style>
<g id="freepik--Floor--inject-4">
	<ellipse id="freepik--floor--inject-4" class="st0" cx="250" cy="340.9" rx="239.6" ry="137.9"/>
</g>
<g id="freepik--Plants--inject-4">
	<g id="freepik--plants--inject-4">
		<path class="st1" d="M284.8,212.8c0,0-3.5-12.3-1.4-23.9s7.9-20.6,15.1-24.2s16.2,0.8,10.1,8.8s-18.4,18.7-17.7,39.2L284.8,212.8z
			"/>
		<path class="st2" d="M284.8,212.8c0,0-3.5-12.3-1.4-23.9s7.9-20.6,15.1-24.2s16.2,0.8,10.1,8.8s-18.4,18.7-17.7,39.2L284.8,212.8z
			"/>
		<path class="st3" d="M285.1,210.3c0.2,0,0.4-0.2,0.4-0.5c-2.1-25.1,17.3-41.6,17.5-41.8c0.2-0.1,0.2-0.4,0.1-0.6
			c-0.1-0.2-0.4-0.2-0.6-0.1c0,0,0,0,0,0c-0.2,0.2-20,16.9-17.8,42.5C284.6,210.2,284.9,210.4,285.1,210.3L285.1,210.3z"/>
		<path class="st1" d="M290.3,236.2c2.6,0.3,6.8,0.4,9.2-1.1c2.8-1.5,4.5-4.6,4.2-7.8c-0.3-1.6-0.3-3.3,0-4.9c0.5-1.5,1.6-2.7,3-3.4
			c1.7-0.9,3.6-1.2,5.3-2s3.4-2.1,3.6-4c0.1-1.3-0.3-2.6-1.1-3.7c-0.8-1.1-1.7-2-2.5-3.1c-1.4-1.9-1.4-3.9,0.5-5.3
			c3.7-2.8,9.5-7.7,6.1-10.7s-10-0.7-14.2,2.8c-2.6,2.4-6.2,3.6-9.8,3.1c-4.4-0.3-6.1,1.3-7.3,6.6c-0.5,2.3-1.7,3-3,4.7
			c-1.4,1.8-0.5,5.3-0.1,7.6c1.2,6.8,2.8,13.5,4.6,20.2C289.2,236.3,289.4,235.6,290.3,236.2z"/>
		<path class="st3" d="M286.6,228.1c0.7-4.6,2.3-9,4.5-13.1c0-0.1,0.1-0.2,0.1-0.2c0.8-1.5,1.8-3.1,2.8-4.5c-0.2-3.2-0.9-6.4-2-9.5
			c-0.1-0.2,0-0.5,0.2-0.6s0.5,0,0.6,0.2c1,2.8,1.7,5.8,1.9,8.8c5-6.8,11.4-12.6,18.6-16.9c0.2-0.1,0.5-0.1,0.6,0.1
			c0.1,0.2,0.1,0.5-0.1,0.6c0,0-0.1,0-0.1,0c-0.2,0.1-13.3,7.6-21.1,21c5-2.5,10.7-3.4,16.2-2.5c0.2,0,0.4,0.2,0.3,0.5c0,0,0,0,0,0
			c0,0.2-0.3,0.4-0.5,0.3c0,0,0,0,0,0c-5.8-0.9-11.7,0.2-16.8,3.1c-2.2,4-3.7,8.4-4.4,12.9c0,0.2-0.2,0.3-0.4,0.4H287
			C286.8,228.5,286.6,228.3,286.6,228.1z"/>
	</g>
</g>
<g id="freepik--magnifying-glass--inject-4">
	<g id="freepik--Glass--inject-4">
		<path d="M221.7,371.3L221.7,371.3c0-0.2,0-0.4,0-0.7V371.3z"/>
		<path class="st1" d="M223.2,371.3c0-0.2,0-0.4,0-0.7c0-0.4-0.1-0.9-0.1-1.3c0-0.1-0.1-0.3-0.1-0.5c-0.2-0.8-0.5-1.7-0.9-2.4
			c-0.5-1-1.5-1.8-2.6-1.9l-62.5-1.9c-1.3,0-2.5,0.8-3.5,2.5c-1.9,3.7-1.9,8.1,0,11.8c1,1.7,2.2,2.5,3.5,2.4l0,0l62.6-2l0,0l0,0
			c1.1-0.1,2.1-0.8,2.6-1.9C222.8,374.2,223.1,372.7,223.2,371.3L223.2,371.3z"/>
		<path class="st4" d="M223.1,369.3c0-0.1,0-0.2,0-0.2s0-0.2,0-0.3s-0.1-0.4-0.2-0.6c-0.2-0.6-0.4-1.2-0.7-1.8
			c-0.1-0.2-0.2-0.3-0.3-0.4c-0.5-0.8-1.4-1.4-2.3-1.4l-62.6-1.9c-1.3,0-2.5,0.8-3.5,2.5c-1,1.9-1.5,4-1.4,6.2h71.1
			c0-0.2,0-0.4,0-0.7C223.2,370.2,223.2,369.8,223.1,369.3z"/>
		<path class="st5" d="M223.2,371.3h-71.1c0,2,0.5,3.9,1.4,5.7c1,1.7,2.2,2.5,3.5,2.4l0,0l62.6-2l0,0l0,0l0,0c0.8,0,1.5-0.4,2-1.1
			c0.2-0.3,0.4-0.5,0.6-0.8C222.8,374.2,223.2,372.7,223.2,371.3z"/>
		<path class="st1" d="M223.8,371.1c-0.1,3.5-2.2,6.3-4.6,6.2s-4.3-3-4.1-6.6s2.2-6.3,4.6-6.2S223.9,367.6,223.8,371.1z"/>
		<path class="st6" d="M243.3,368c0.9,1.9,0.9,4.1,0,5.9c-0.3,0.7-0.9,1.2-1.7,1.2l0,0l-21.6,0.1l0,0c-0.7-0.1-1.4-0.5-1.7-1.2
			c-0.9-1.9-0.9-4.1,0-5.9c0.3-0.7,1-1.2,1.7-1.2l0,0l21.6-0.1l0,0C242.3,366.9,243,367.3,243.3,368z"/>
		<path class="st7" d="M241.6,366.7c0.8,0.1,1.4,0.5,1.7,1.2c0.4,0.7,0.6,1.4,0.7,2.2l-26.4,0.1c0.1-0.8,0.3-1.5,0.6-2.1
			c0.3-0.7,1-1.2,1.7-1.2L241.6,366.7L241.6,366.7z"/>
		<path class="st1" d="M339,364.8c0-7.3-4.8-14.6-14.5-20.2c-19.3-11.1-50.6-11.1-70,0c-9.7,5.6-14.5,12.9-14.5,20.2l0,0v13.5
			c0,7.3,4.8,14.6,14.5,20.2c19.3,11.1,50.6,11.1,70,0c9.7-5.6,14.5-12.9,14.5-20.2V364.8z M257,348.8c8.6-5,20.2-7.7,32.6-7.7
			s24,2.7,32.6,7.7c7.8,4.5,12.1,10.2,12.1,16.1s-4.3,11.5-12.1,16c-8.6,5-20.2,7.7-32.6,7.7s-24-2.7-32.6-7.7
			c-7.8-4.5-12.1-10.2-12.1-16S249.1,353.3,257,348.8L257,348.8z"/>
		<path class="st5" d="M287.9,393.4v13.5c13.2,0.2,26.5-2.5,36.6-8.3c9.6-5.6,14.5-12.9,14.5-20.2v-13.5c0-0.5,0-0.9-0.1-1.4
			c0.6,7.8-4.2,15.6-14.4,21.6C314.4,390.9,301.1,393.6,287.9,393.4z"/>
		<path class="st4" d="M254.5,385c19.3,11.2,50.6,11.2,70,0s19.3-29.2,0-40.4s-50.6-11.1-70,0S235.2,373.9,254.5,385z M244.8,364.8
			c0-5.9,4.3-11.5,12.1-16.1c8.6-5,20.2-7.7,32.6-7.7s24,2.7,32.6,7.7c7.8,4.5,12.1,10.2,12.1,16.1s-4.3,11.5-12.1,16
			c-8.6,5-20.2,7.7-32.6,7.7s-24-2.7-32.6-7.7C249.1,376.4,244.8,370.7,244.8,364.8L244.8,364.8z"/>
		<path class="st1" d="M244.8,364.8c0,2.4,0.7,4.7,1.9,6.7c2-3.4,5.4-6.6,10.2-9.3c8.6-5,20.2-7.7,32.6-7.7s24,2.8,32.6,7.7
			c4.8,2.7,8.2,5.9,10.2,9.3c1.2-2,1.9-4.4,1.9-6.7c0-5.9-4.3-11.5-12.1-16.1c-8.6-5-20.2-7.7-32.6-7.7s-24,2.8-32.6,7.7
			C249.1,353.3,244.8,359,244.8,364.8z"/>
		<path class="st8" d="M256.9,354.9c8.6-5,20.2-7.7,32.6-7.7s24,2.7,32.6,7.7c6.4,3.7,10.5,8.3,11.7,13c-1.2,4.8-5.3,9.3-11.7,13
			c-8.6,5-20.2,7.7-32.6,7.7s-24-2.7-32.6-7.7c-6.4-3.7-10.5-8.3-11.7-13C246.4,363.1,250.5,358.6,256.9,354.9z"/>
	</g>
</g>
<g id="freepik--Character--inject-4">
	<g id="freepik--character--inject-4">
		<path class="st9" d="M378.5,128.7L378.5,128.7c0.6-0.7,0.9-1.6,0.8-2.4c0-1.5,0.1-3,0.2-4.5c0-0.8,0-1.5,0.1-2.3
			c0-0.5-0.2-1.2,0.1-1.6c0.2-0.2,0.5-0.3,0.8-0.3c0.9,0.2,1.5,0.8,1.8,1.6c0.7,1.9,1.1,4,1,6.1c0.1,2.3,0.2,4.6,0.6,6.9
			c0.1,0.6,0.4,2.8,1.3,2.2c0.7-0.5,1.2-1.2,1.5-2c0.3-0.7,0.8-1.3,1.5-1.8c0.6-0.5,2.2-1,2.2,0.3c0,0.3-0.1,0.5-0.2,0.8
			c-0.5,1.4-1,2.8-1.5,4.2c-0.3,0.7-0.6,1.4-0.9,2.1c-0.2,0.4-0.3,0.7-0.5,1s-0.5,0.7-0.5,1c-0.6,1-1.1,2-1.5,3
			c-0.4,1.5-0.3,3,0.5,4.3c0.3,0.7,0.6,1.3,0.8,2l6.2,13.3c0,0,12-12.8,15.1-16.2c4.1-4.4,6.6-6.2,12.7-6.2l-5.6,20.8
			c-4.1,4.7-8.4,9.2-13,13.4c-9.4,8.3-11.9,10-14.2,9.2s-4.6-3.9-6.5-10.3c-1.1-3.8-2.1-7.1-3-10.9c-0.6-2.4-1.2-4.8-1.7-7.2
			c-0.4-1.9-0.9-3.2-1.3-5.1c-0.2-0.8-1.4-2.3-1.7-3c-0.6-1.6-1.1-3.1-1.5-4.8c-0.6-3-1.1-7.2,1.6-9.3c0.5-0.3,1-0.7,1.4-1.2
			c0.4-0.6,0.3-1.4,0.7-1.9C376.3,129.3,377.6,129.4,378.5,128.7z"/>
		<path class="st10" d="M379.6,129.7c1.3,0.4,2.4,1.4,2.9,2.6c0.3,1.6,0.5,3.3,0.6,4.9c0,0.7-0.3,1.7-1.3,1.8
			c-0.2,0.8-0.9,1.4-1.7,1.5c-0.2,0.8-0.9,1.4-1.8,1.5c-0.3,0.6-0.8,1.1-1.5,1.2c1.4-0.4,2.6-1.2,3.6-2.3c0.8-0.1,1.4-0.6,1.7-1.3
			c0.8-0.1,1.5-0.8,1.6-1.7c0.1-1.6,0-3.2-0.4-4.8C383.1,131.8,382.9,130.3,379.6,129.7z"/>
		<path class="st1" d="M421.3,140.3c-2.8-0.1-6.6-1.1-12.6,4.6s-16,17.7-16,17.7l-4-8.3c0,0-1.6,5.2-11.3,5.4c0,0,1.7,8.8,3.5,15
			s3.9,9,6.4,9.7s5.3-1.1,11.7-6.8s18.9-17.3,18.9-17.3L421.3,140.3z"/>
		<path class="st4" d="M421.3,140.3c-2.8-0.1-6.6-1.1-12.6,4.6s-16,17.7-16,17.7l-4-8.3c0,0-1.6,5.2-11.3,5.4c0,0,1.7,8.8,3.5,15
			s3.9,9,6.4,9.7s5.3-1.1,11.7-6.8s18.9-17.3,18.9-17.3L421.3,140.3z"/>
		<path class="st11" d="M392.8,162.6c1.9,2.7,3,5.8,3.3,9c0.3-1.5,0.3-3,0.2-4.5c-0.8-4.1-2.5-5.8-2.5-5.8L392.8,162.6z"/>
		<polygon class="st9" points="454.5,335.1 445.1,334.9 443,314.4 454.8,314.2 		"/>
		<path class="st9" d="M418.9,324c-1.7,2.7-6.8,2.4-11.1,1.3v-20.1l12.6-0.2L418.9,324z"/>
		<path class="st6" d="M452.6,206c0.1,8.7,0.5,59.4,0.5,59.4c0.2,2.5,2.7,6.9,3,15.9c0.4,13.1-1.1,41.7-1.1,41.7
			c-3.5,1.6-7.6,1.7-11.2,0.4c0,0-6.7-41.3-8.5-54.2c-1.6-11.3-6-40.8-6-40.8l-5.7,38.4c0.7,4.6,1,9.2,0.7,13.9
			c-0.4,6-4.5,35-4.5,35c-3.9,1.2-8.1,1.2-12,0c0,0-1.6-45.3-1.8-50.8c-0.2-6.3,1.5-61.4,1.5-61.4L452.6,206z"/>
		<path class="st12" d="M429.2,228.4c0,0-8.2-2.5-13.6-7.7c0,0,2.5,4.6,9.8,8.7l-1.3,33.6L429.2,228.4z"/>
		<path class="st12" d="M433.9,351.6c-0.3,1-0.2,2,0.2,2.9c0.4,0.6,2.5,2.4,6.4,2.6c3.7,0.2,7-0.3,9.2-1.7s3.2-3,3.4-5.1
			s-0.1-4.1,0.9-5.8s2.4-3.2,2.7-4c0.4-1.4,0.4-2.9,0-4.3L433.9,351.6z"/>
		<path class="st7" d="M443.8,333c0,0.8-0.1,1.6-0.4,2.4c-0.5,1.6-1.3,3.2-2.2,4.7c-0.5,0.8-1,1.5-1.5,2.2c-1.1,1.4-2.5,2.5-3.6,3.8
			c-1.2,1.2-2,2.8-2.2,4.6c-0.1,2.9,3,3.9,5.5,4.3c2.6,0.4,5.3,0.3,7.9-0.5c2.7-0.8,4.8-3.1,5.2-5.9c0.1-0.8,0.1-1.6,0.1-2.5
			c0.3-1.9,1.1-3.6,2.2-5.1c0.7-0.9,1.2-1.8,1.7-2.8c0.7-1.8,0.1-3.8-0.4-5.6c-0.4-1.5-0.9-3.3-1.5-3.1c0,0.8,0,0.9-0.6,1.4
			c-0.7,0.7-0.7,1.7-1.5,2.4c0.2-0.7,0.4-1.4,0.5-2.1c0-0.3,0-0.6-0.2-0.8c-0.3-0.2-0.6-0.4-0.9-0.5c-1.2-0.4-2.3-0.6-3.5-0.8
			c-1.1-0.2-2.3-0.2-3.4,0c-0.3,0.1-0.6,0.2-0.9,0.5c-0.2,0.3-0.3,0.6-0.3,1C443.8,331.1,443.9,332.3,443.8,333z"/>
		<path class="st12" d="M386.1,335.6c-0.4,0.8-0.4,1.8,0,2.6c0.3,0.8,4.1,3.3,9.5,3.4c4,0,7.9-1,11.4-3.1c2.1-1.2,4.3-1.3,7-1.3
			s6.3-1,6.9-2.2s0.2-3.4,0.2-3.4L386.1,335.6z"/>
		<path class="st7" d="M409,320.5l-0.4-0.1c-0.2-0.1-0.5-0.1-0.7-0.1c-0.3,0.1-0.5,0.2-0.7,0.4c-0.6,0.6-1.1,1.3-1.5,2.1
			c-1.3,1.8-3.7,3.1-6.4,4.3c-1.8,0.8-3.6,1.4-5.5,2.1s-4.4,1-5.9,1.9c-2.2,1.3-2.8,4.8-0.5,6.4c2,1.4,7.3,3.1,13.2,1.9
			c3.2-0.6,6.9-3.7,11-3.7c2.6,0,7.6-0.4,9.4-2.2c0.7-0.8,0.1-3.7-0.4-6.1c-0.5-2.7-0.2-6.6-1.4-6.6l-0.1,1.3
			c-0.1,0.4-1.1,0.8-1.4,1l-1.1,1.1c-0.4,0.5-1,0.9-1.6,1.2c-1.1,0.3-2.3,0.3-3.4-0.2c0,0,0.6-2,0.7-2.2c0.1-0.2,0.1-0.3,0.1-0.5
			c-0.1-0.2-0.2-0.3-0.3-0.4C411.2,321.3,410.1,320.8,409,320.5z"/>
		<path class="st1" d="M434.8,140.6c3.5,0.3,7.6,0.5,10.9,0.9c4.3,0.5,7.7,4.8,8.8,11.6c1.3,7.5-3.1,29.1-3.1,29.1l2,25.4
			c-6.2,4.7-32.7,7.6-46.1-1.7c0,0-0.5-43.2,0.5-49.9c1.3-9.1,3.4-14.9,13.7-15.7L434.8,140.6z"/>
		<path class="st13" d="M434.8,140.6c3.5,0.3,7.6,0.5,10.9,0.9c4.3,0.5,7.7,4.8,8.8,11.6c1.3,7.5-3.1,29.1-3.1,29.1l2,25.4
			c-6.2,4.7-32.7,7.6-46.1-1.7c0,0-0.5-43.2,0.5-49.9c1.3-9.1,3.4-14.9,13.7-15.7L434.8,140.6z"/>
		<path class="st9" d="M475.7,194.3c0,0-7.4,11-11.8,15.8c-3,3.4-9.6,10.4-13.9,12.5c-10.6,5.4-14.6-1.3-15.5-3.1
			c-1-2.1-0.3-3.9,5.8-6.3c1.4-0.5,2.6-1.2,3.9-2c0.6-0.4,2.6-1.4,1.6-2.2c-0.3-0.2-0.7-0.4-1.1-0.4l-2.9-0.4
			c-0.6,0-1.2-0.2-1.8-0.6c-0.5-0.4-0.7-1.1-0.4-1.7c0.4-0.4,0.9-0.6,1.5-0.6c3.3-0.3,6.6-0.4,9.9-0.5c0.7,0,1.8,0.3,2.4-0.1
			c0.3-0.2,0.6-0.5,0.9-0.9c0.5-0.7,0.9-1.3,1.4-2c1.2-1.8,2.4-3.7,3.6-5.5c1.6-2.5,4.4-7.9,6-10.4l-14.2-22c0,0-7.2-8.8-4.3-22.3
			c0,0,6.5,0.3,10.5,4.3s21,33.8,21.8,37.1S479.8,188,475.7,194.3z"/>
		<path class="st1" d="M445.6,141.5c3.1-0.1,8.2,0,11.7,3.9s15.2,23.4,19.2,31s5,9.5,1.8,15s-10.9,14.3-10.9,14.3s-4-5.4-9.3-7.8
			l6.3-11.9l-13.8-20.5C450.7,165.5,441.3,154,445.6,141.5z"/>
		<path class="st4" d="M445.6,141.5c3.1-0.1,8.2,0,11.7,3.9s15.2,23.4,19.2,31s5,9.5,1.8,15s-10.9,14.3-10.9,14.3s-4-5.4-9.3-7.8
			l6.3-11.9l-13.8-20.5C450.7,165.5,441.3,154,445.6,141.5z"/>
		<path class="st12" d="M442.8,120.1c0,0-2.9,8.9-3.9,10.8c-0.5,1.1-1.6,1.9-2.9,2.1v-6.5L442.8,120.1z"/>
		<path class="st12" d="M438.2,105.7c2.2-0.7,4.5,0.2,5.7,2.1c1.3,1.9,1.7,6.3-3,16.9l-3.8-4L438.2,105.7z"/>
		<path class="st9" d="M436.5,120.7c0.3-0.9,0.9-1.8,1.6-2.5c0.9-0.9,4.5-1.9,6.1,1.2s-1.3,7.1-3.5,8.2c-1.4,0.9-3.3,0.6-4.3-0.7
			l-0.3,14.5l0,0c-2.9,5.2-11.2,3.4-11.5,9.9c-1.5-5.1-4.1-7.7-1.6-10.7l-0.1-4.1c-1.8,0.3-3.6,0.5-5.4,0.4c-3-0.4-4.9-2.7-5.9-5.9
			c-1.6-5.1-2.2-9.3-1.2-19.5c1.1-11.2,14-11.6,21.1-7.3S436.5,120.7,436.5,120.7z"/>
		<path class="st12" d="M406.2,100c-0.3-1.5,0.2-3.1,1.3-4.1c1.4-1.3,3.9-1,6.1-0.2c2.1,0.7,4.5,2.2,10.6,2.1c3.1,0,7.3-0.6,10.4,1
			c3.6,1.8,4.9,3.8,5.1,6.3c0.1,0.8-0.7,1.4-0.9,2.2c-0.3,0.7-0.4,1.4-0.5,2.1c0.1,1.2,0.4,2.5,0.5,3.7c0.1,1.2,0.2,2.4,0.2,3.6
			c0,0.6-0.4,1-0.9,1.4c-0.7,0.6-1.3,1.3-1.6,2.2c-0.3,0.5-0.6,1.8-1.1,2.2c-1.6,1-1.7-2.5-1.7-3.2c0-1.6,0-3.1,0.2-4.7
			c-1.6-0.1-3.1-0.8-4.1-2c-0.5-0.7-0.9-1.5-1-2.3c-0.1-0.5-0.1-1-0.1-1.4c-1.3,1.5-3.7,1.8-5.3,1.8c-1.8,0.1-3.5-0.7-4.5-2.1
			c-0.6,0.9-1.4,1.6-2.3,2.1c-1.6,0.7-3.4,0.9-5.1,0.6c-1.6-0.3-3-1.4-3.8-2.9c-0.7-1.6-0.5-3.6,0.5-5
			C407.3,102.6,406.5,101.4,406.2,100z"/>
		<path class="st12" d="M439.6,106.4l4.4-2.5c-0.6-1.2-2.1-1.7-3.3-1c0,0-0.1,0-0.1,0C439.4,103.7,439,105.2,439.6,106.4z"/>
		<path class="st10" d="M422.8,136.5c0,0,6.6-1.5,8.9-2.8c1.3-0.7,2.4-1.9,3.1-3.2c-0.3,1.4-0.9,2.6-1.7,3.8c-1.6,2.2-10.3,4-10.3,4
			L422.8,136.5z"/>
		<path class="st12" d="M423.6,119.9c0,0.8,0.7,1.4,1.5,1.3c0.8,0,1.4-0.7,1.3-1.5c0-0.8-0.7-1.4-1.4-1.3
			C424.2,118.4,423.6,119.1,423.6,119.9C423.6,119.9,423.6,119.9,423.6,119.9z"/>
		<path class="st12" d="M424.9,115.1l3,1.6c0.4-0.8,0.1-1.9-0.7-2.3C426.4,113.9,425.4,114.2,424.9,115.1
			C424.9,115,424.9,115,424.9,115.1z"/>
		<path class="st10" d="M423.6,127.9l-4.3,1.7c0.4,1.2,1.7,1.8,2.9,1.4c0,0,0.1,0,0.1,0C423.5,130.5,424.1,129.1,423.6,127.9z"/>
		<path class="st12" d="M411.7,116l2.6-2.1c-0.5-0.7-1.5-0.9-2.3-0.4c0,0-0.1,0-0.1,0.1C411.3,114.2,411.2,115.2,411.7,116z"/>
		<path class="st12" d="M412.4,119.3c0,0.8,0.6,1.4,1.4,1.4c0.8,0,1.4-0.7,1.4-1.5c0-0.8-0.6-1.4-1.4-1.4c0,0,0,0,0,0
			C413,117.9,412.4,118.6,412.4,119.3z"/>
		<polygon class="st10" points="419.3,117.9 419,126.6 414.4,125.1 		"/>
		<path class="st1" d="M436.1,137.4v1.7c0,0-2.6,4.1-6,5.7s-4.5,1.6-5.1,3.5c-0.4,1-0.6,2-0.5,3.1c0,0,0.8-3.3,1.9-3.2
			s4.9,4.3,4.9,4.3s5.9-1.2,7.8-5.2s1-6.2,1-6.2S438.1,137.5,436.1,137.4z"/>
		<path class="st4" d="M436.1,137.4v1.7c0,0-2.6,4.1-6,5.7s-4.5,1.6-5.1,3.5c-0.4,1-0.6,2-0.5,3.1c0,0,0.8-3.3,1.9-3.2
			s4.9,4.3,4.9,4.3s5.9-1.2,7.8-5.2s1-6.2,1-6.2S438.1,137.5,436.1,137.4z"/>
		<path class="st1" d="M424.5,151.4c-0.3-1.5-0.4-3-0.5-4.6c0-1.2-0.3-2.4-0.8-3.5c-0.2-0.9-0.4-1.7-0.4-2.6l-0.1-2.9
			c-0.9,0.2-1.7,0.7-2.3,1.3c-1,1.8-1.7,3.6-2.3,5.5c-0.1,1.9,0.2,3.8,1,5.5c0,0,1.7-3.9,2.8-3.3S423.5,150.2,424.5,151.4z"/>
		<path class="st4" d="M424.5,151.4c-0.3-1.5-0.4-3-0.5-4.6c0-1.2-0.3-2.4-0.8-3.5c-0.2-0.9-0.4-1.7-0.4-2.6l-0.1-2.9
			c-0.9,0.2-1.7,0.7-2.3,1.3c-1,1.8-1.7,3.6-2.3,5.5c-0.1,1.9,0.2,3.8,1,5.5c0,0,1.7-3.9,2.8-3.3S423.5,150.2,424.5,151.4z"/>
	</g>
</g>
<g id="freepik--speech-bubble--inject-4_2_">
	<g id="freepik--speech-bubble--inject-4_1_">
		<g id="freepik--speech-bubble--inject-4">
			<path class="st1" d="M430.5,84.6c0.1-0.1,0.2-0.2,0.3-0.3l3.2-5.5v-3l-9.4-3.7v3l1.1,3.3l-5.6-3.2l-0.3,1.9L423,88
				c0.1,0.4,0.5,0.6,0.9,0.4c0.1,0,0.1,0,0.1-0.1L430.5,84.6z"/>
			<path class="st14" d="M430.5,84.6c0.1-0.1,0.2-0.2,0.3-0.3l3.2-5.5v-3l-9.4-3.7v3l1.1,3.3l-5.6-3.2l-0.3,1.9L423,88
				c0.1,0.4,0.5,0.6,0.9,0.4c0.1,0,0.1,0,0.1-0.1L430.5,84.6z"/>
			<path class="st1" d="M420.1,75.2l-0.3,1.9L423,88c0.1,0.4,0.5,0.6,0.9,0.4c0.2-0.1,0.3-0.2,0.4-0.3l3.6-6.3l-0.4-2.3L420.1,75.2z
				"/>
			<path class="st1" d="M407.1,44.5c0.1-2.1,1.2-4.1,3-5.3l0,0c1.9-1,4.2-1,6.1,0l28.5,16.4c1.8,1.2,2.9,3.1,3,5.3v22
				c-0.1,2.1-1.2,4.1-3,5.3l0,0c-1.9,1-4.2,1-6.1,0l-28.8-16.6c-2.7-1.6-2.8-3.1-2.8-5.1V44.5z"/>
			<path class="st2" d="M447.8,82.9c-0.1,2.1-1.2,4.1-3,5.3l0,0c-1.7,0.9-3.8,1-5.6,0.3c1.4,0.5,2.5-0.3,2.5-2v-22
				c0-1.1-0.3-2.1-0.9-3l6.1-3.5c0.5,0.9,0.9,1.9,0.9,3L447.8,82.9z"/>
			<path class="st8" d="M407.2,43.7c0.4-1.3,1.5-1.7,2.9-0.9l28.5,16.3c0.9,0.6,1.6,1.3,2.1,2.3l6.1-3.5c-0.5-0.9-1.2-1.7-2.1-2.3
				l-28.5-16.4c-1.9-1-4.2-1-6.1,0l0,0C408.6,40.3,407.5,41.9,407.2,43.7z"/>
		</g>
		<path class="st15" d="M429.2,62.5c0.1,0.1,0.2,0.1,0.2,0.3c0.1,0.1,0.1,0.2,0.1,0.4v6.6c0,0.6-0.1,1.3-0.2,1.9
			c-0.1,0.4-0.3,0.8-0.7,1.1c-0.3,0.2-0.6,0.3-1,0.3c-0.5,0-0.9-0.2-1.3-0.4c-0.5-0.3-0.9-0.7-1.3-1.1c-0.4-0.4-0.7-1-1-1.5
			c-0.3-0.6-0.5-1.2-0.7-1.8c-0.2-0.7-0.2-1.4-0.2-2.2v-6.6c0-0.1,0-0.2,0.1-0.3c0.1-0.1,0.1-0.1,0.2,0l1.4,0.8
			c0.1,0.1,0.2,0.1,0.2,0.3c0.1,0.1,0.1,0.2,0.1,0.4V67c0,0.6,0.1,1.2,0.3,1.7c0.2,0.5,0.5,0.9,1,1.1c0.4,0.3,0.8,0.3,1,0
			c0.3-0.4,0.4-0.9,0.3-1.4V62c0-0.1,0-0.2,0.1-0.3c0.1-0.1,0.1-0.1,0.2,0L429.2,62.5z"/>
		<path class="st15" d="M434.6,65.6c0.5,0.3,0.9,0.6,1.2,1c0.4,0.4,0.7,0.8,0.9,1.3c0.3,0.5,0.5,1,0.6,1.6c0.1,0.6,0.2,1.2,0.2,1.8
			c0,0.5-0.1,1.1-0.2,1.6c-0.1,0.3-0.3,0.6-0.6,0.9c-0.3,0.2-0.6,0.2-0.9,0.2c-0.4-0.1-0.9-0.2-1.2-0.5l-1.4-0.8v3.4
			c0,0.1,0,0.2-0.1,0.3c-0.1,0.1-0.1,0.1-0.2,0l-1.4-0.8c-0.1-0.1-0.2-0.1-0.2-0.3c0-0.1-0.1-0.2-0.1-0.4V64.1c0-0.1,0-0.2,0.1-0.3
			c0.1-0.1,0.2-0.1,0.2,0L434.6,65.6z M433.2,70l1.3,0.8c0.2,0.2,0.5,0.2,0.8,0.1c0.2-0.1,0.3-0.4,0.3-0.8c0-0.8-0.3-1.5-1-1.9
			l-1.3-0.8L433.2,70z"/>
		<polygon class="st15" points="410.5,58.1 415.1,54.8 419.7,63.4 417.5,62.1 417.5,68.1 412.7,65.3 412.7,59.3 		"/>
	</g>
</g>
<g id="freepik--Device--inject-97">
	<g id="freepik--Mobile--inject-97">
		<path class="st1" d="M198.4,13.8L74.6,85.3c-2.5,1.6-4,4.3-4.2,7.3v291.7c0,2.7,1.9,3.8,4.2,2.4l123.9-71.5c2.5-1.6,4-4.3,4.2-7.3
			V16.2C202.6,13.6,200.7,12.5,198.4,13.8z M196.6,286.3c0,2.3-1.6,3.7-3.6,4.9L79.6,356.7c-2,1.1-3.6,0.2-3.6-2.1V112.1l0,0
			c0-2.6,1.4-4.9,3.6-6.2L193,40.4c1.1-0.7,2.6-0.3,3.3,0.9c0.2,0.4,0.3,0.8,0.3,1.2l0,0V286.3z"/>
		<path class="st14" d="M198.4,13.8L74.6,85.3c-2.5,1.6-4,4.3-4.2,7.3v291.7c0,2.7,1.9,3.8,4.2,2.4l123.9-71.5
			c2.5-1.6,4-4.3,4.2-7.3V16.2C202.6,13.6,200.7,12.5,198.4,13.8z M196.6,286.3c0,2.3-1.6,3.7-3.6,4.9L79.6,356.7
			c-2,1.1-3.6,0.2-3.6-2.1V112.1l0,0c0-2.6,1.4-4.9,3.6-6.2L193,40.4c1.1-0.7,2.6-0.3,3.3,0.9c0.2,0.4,0.3,0.8,0.3,1.2l0,0V286.3z"
			/>
		<path class="st1" d="M196.6,286.3c0,2.3-1.6,3.7-3.6,4.9L79.6,356.7c-2,1.1-3.6,0.2-3.6-2.1V112.1l0,0c0-2.6,1.4-4.9,3.6-6.2
			L193,40.4c1.1-0.7,2.6-0.3,3.3,0.9c0.2,0.4,0.3,0.8,0.3,1.2l0,0V286.3z"/>
		<path class="st16" d="M196.6,286.3c0,2.3-1.6,3.7-3.6,4.9L79.6,356.7c-2,1.1-3.6,0.2-3.6-2.1V112.1l0,0c0-2.6,1.4-4.9,3.6-6.2
			L193,40.4c1.1-0.7,2.6-0.3,3.3,0.9c0.2,0.4,0.3,0.8,0.3,1.2l0,0V286.3z"/>
		<path class="st1" d="M79.6,356.7L193,291.2c0.8-0.4,1.5-1,2.1-1.6L76,222.5v132.1C76,356.9,77.6,357.9,79.6,356.7z"/>
		<path class="st17" d="M79.6,356.7L193,291.2c0.8-0.4,1.5-1,2.1-1.6L76,222.5v132.1C76,356.9,77.6,357.9,79.6,356.7z"/>
		<path class="st6" d="M187.4,282.1V43.6L79.6,105.9c-2.2,1.3-3.6,3.6-3.6,6.2v237.1L183.8,287C185.8,285.8,187.4,284.3,187.4,282.1
			z"/>
		<path class="st1" d="M74,387c-2.5,1.1-5.4,1-7.9-0.3l-4.8-2.8c-2.5-1.6-4-4.3-4.2-7.3V85c0-1.1,0.3-2.1,0.7-3.1
			c0.1-0.3,0.3-0.7,0.5-1l0,0l13.2,7.6l0,0c-0.3,0.5-0.5,1-0.7,1.5c-0.3,0.8-0.5,1.7-0.5,2.6v291.7C70.4,386.8,71.9,387.9,74,387z"
			/>
		<path class="st16" d="M74,387c-2.5,1.1-5.4,1-7.9-0.3l-4.8-2.8c-2.5-1.6-4-4.3-4.2-7.3V85c0-1.1,0.3-2.1,0.7-3.1
			c0.1-0.3,0.3-0.7,0.5-1l0,0l13.2,7.6l0,0c-0.3,0.5-0.5,1-0.7,1.5c-0.3,0.8-0.5,1.7-0.5,2.6v291.7C70.4,386.8,71.9,387.9,74,387z"
			/>
		<path class="st1" d="M140.2,328.2L140.2,328.2c2.7,0,3,3,3,4.3c0,4.7-3.4,10.6-7.5,12.9c-0.9,0.5-1.9,0.9-2.9,0.9
			c-2.7,0-3-3-3-4.3c0-4.7,3.4-10.6,7.5-12.9C138.2,328.6,139.2,328.3,140.2,328.2"/>
		<path class="st12" d="M136.4,54.2c1.1-0.7,2-0.1,2,1.2c-0.1,1.4-0.8,2.8-2,3.6c-1.1,0.7-2,0.1-2-1.2
			C134.5,56.3,135.2,55,136.4,54.2z"/>
		<path class="st12" d="M123.2,71.5c1-0.6,1.8-0.1,1.8,1c-0.1,1.3-0.7,2.5-1.8,3.2c-1,0.6-1.8,0.1-1.8-1
			C121.4,73.4,122.1,72.2,123.2,71.5z"/>
		<path class="st12" d="M129.3,67.9l20.3-11.7c1.1-0.6,2-0.2,2,1c-0.1,1.4-0.8,2.6-2,3.3l-20.3,11.8c-1.1,0.7-2,0.2-2-1
			C127.4,69.9,128.1,68.7,129.3,67.9z"/>
		<path class="st1" d="M202.6,15.6c-0.3-2.2-2-3-4.1-1.8L74.6,85.3c-1.3,0.8-2.3,1.8-3,3.1l-13.2-7.6c0.7-1.3,1.7-2.4,3-3.1
			L185.2,6.2c2.6-1.3,5.7-1.3,8.4,0l4.8,2.8C200.7,10.5,202.2,12.9,202.6,15.6z"/>
		<path class="st17" d="M202.6,15.6c-0.3-2.2-2-3-4.1-1.8L74.6,85.3c-1.3,0.8-2.3,1.8-3,3.1l-13.2-7.6c0.7-1.3,1.7-2.4,3-3.1
			L185.2,6.2c2.6-1.3,5.7-1.3,8.4,0l4.8,2.8C200.7,10.5,202.2,12.9,202.6,15.6z"/>
		<g id="freepik--device--inject-97">
			<g id="freepik--mobile--inject-97">
				<path class="st1" d="M170.1,24.4c-1.3,0.7-2.9,0.7-4.2,0.1c-0.5-0.2-0.8-0.6-0.8-1.2c0-0.3,0-1.5,0-1.8c0.1-0.6,0.4-1,0.9-1.3
					l13.3-7.7c1.3-0.7,2.9-0.7,4.2-0.1c0.4,0.2,0.7,0.6,0.8,1.1c0,0.3,0,1.5,0,1.8c-0.1,0.6-0.4,1-0.9,1.3L170.1,24.4z"/>
				<path class="st18" d="M170.1,24.4c-1.3,0.7-2.9,0.7-4.2,0.1c-0.5-0.2-0.8-0.6-0.8-1.2c0-0.3,0-1.5,0-1.8c0.1-0.6,0.4-1,0.9-1.3
					l13.3-7.7c1.3-0.7,2.9-0.7,4.2-0.1c0.4,0.2,0.7,0.6,0.8,1.1c0,0.3,0,1.5,0,1.8c-0.1,0.6-0.4,1-0.9,1.3L170.1,24.4z"/>
				<path class="st1" d="M170.1,22.7l13.3-7.7c1.2-0.7,1.3-1.8,0.1-2.4c-1.3-0.6-2.9-0.6-4.2,0.1L166,20.3c-1.2,0.7-1.3,1.8-0.1,2.4
					C167.2,23.4,168.8,23.4,170.1,22.7z"/>
				<path class="st14" d="M170.1,22.7l13.3-7.7c1.2-0.7,1.3-1.8,0.1-2.4c-1.3-0.6-2.9-0.6-4.2,0.1L166,20.3
					c-1.2,0.7-1.3,1.8-0.1,2.4C167.2,23.4,168.8,23.4,170.1,22.7z"/>
			</g>
		</g>
		<g id="freepik--device--inject-97_1_">
			<g id="freepik--mobile--inject-97_1_">
				<path class="st1" d="M65.5,128.9c0-1.5-0.8-2.8-2-3.7c-0.4-0.3-0.9-0.3-1.4-0.1l-1.5,0.9c-0.5,0.3-0.7,0.9-0.6,1.4V160
					c0,1.5,0.8,2.8,2,3.7c0.4,0.3,0.9,0.3,1.3,0.1c0.3-0.1,1.3-0.7,1.6-0.9c0.4-0.3,0.7-0.9,0.6-1.4V128.9z"/>
				<path class="st14" d="M65.5,128.9c0-1.5-0.8-2.8-2-3.7c-0.4-0.3-0.9-0.3-1.4-0.1l-1.5,0.9c-0.5,0.3-0.7,0.9-0.6,1.4V160
					c0,1.5,0.8,2.8,2,3.7c0.4,0.3,0.9,0.3,1.3,0.1c0.3-0.1,1.3-0.7,1.6-0.9c0.4-0.3,0.7-0.9,0.6-1.4V128.9z"/>
				<path class="st1" d="M63.9,129.8v32.5c0,1.4-0.9,2-2,1.3c-1.2-0.8-2-2.2-2-3.7v-32.5c0-1.4,0.9-2,2-1.3
					C63.2,127,63.9,128.3,63.9,129.8z"/>
				<path class="st17" d="M63.9,129.8v32.5c0,1.4-0.9,2-2,1.3c-1.2-0.8-2-2.2-2-3.7v-32.5c0-1.4,0.9-2,2-1.3
					C63.2,127,63.9,128.3,63.9,129.8z"/>
				<path class="st1" d="M65.5,172.5c0-1.5-0.8-2.8-2-3.7c-0.4-0.3-0.9-0.3-1.4-0.1l-1.5,0.9c-0.5,0.3-0.7,0.9-0.6,1.4v15.3
					c0,1.5,0.8,2.8,2,3.7c0.4,0.3,0.9,0.3,1.3,0.1c0.3-0.1,1.3-0.7,1.6-0.9c0.4-0.3,0.7-0.9,0.6-1.4V172.5z"/>
				<path class="st14" d="M65.5,172.5c0-1.5-0.8-2.8-2-3.7c-0.4-0.3-0.9-0.3-1.4-0.1l-1.5,0.9c-0.5,0.3-0.7,0.9-0.6,1.4v15.3
					c0,1.5,0.8,2.8,2,3.7c0.4,0.3,0.9,0.3,1.3,0.1c0.3-0.1,1.3-0.7,1.6-0.9c0.4-0.3,0.7-0.9,0.6-1.4V172.5z"/>
				<path class="st1" d="M63.9,173.3v15.3c0,1.4-0.9,2-2,1.3c-1.2-0.8-2-2.2-2-3.7V171c0-1.4,0.9-2,2-1.3
					C63.2,170.5,63.9,171.9,63.9,173.3z"/>
				<path class="st17" d="M63.9,173.3v15.3c0,1.4-0.9,2-2,1.3c-1.2-0.8-2-2.2-2-3.7V171c0-1.4,0.9-2,2-1.3
					C63.2,170.5,63.9,171.9,63.9,173.3z"/>
			</g>
		</g>
	</g>
</g>
<g id="freepik--Screen--inject-97">
	<g id="freepik--Window--inject-97">
		<path class="st19" d="M206.9,48.7l-114.4,66c-1.5,1-2.5,2.7-2.6,4.5v242.1c0.1,1.8,1.1,3.5,2.6,4.5l1.6,0.9c1.6,0.8,3.5,0.8,5.2,0
			l114.5-66.1c1.5-1,2.5-2.7,2.6-4.5v-242c-0.1-1.8-1.1-3.5-2.6-4.4l-1.6-0.9C210.5,47.9,208.6,47.9,206.9,48.7z"/>
		<path class="st20" d="M96.6,162.2V364c0,2.3,1.6,3.2,3.6,2.1l112.5-65c2-1.1,3.6-2.6,3.6-4.8V93.1L96.6,162.2z"/>
		<path class="st19" d="M213.9,53.7c0.8,0,1.4,0.6,1.4,1.4v241.2c0,1.5-0.9,2.8-3.1,4L99.7,365.2c-0.3,0.2-0.7,0.3-1.1,0.4
			c-0.9,0-1-1.1-1-1.5V124.1c0-2.2,1.1-4.2,3-5.3l112.5-65C213.3,53.7,213.6,53.7,213.9,53.7 M213.8,52.7c-0.4,0-0.8,0.1-1.2,0.3
			l-112.5,65c-2.2,1.3-3.5,3.6-3.6,6.1V364c0,1.6,0.8,2.5,2,2.5c0.6,0,1.1-0.2,1.6-0.5l112.5-65c2-1.1,3.6-2.6,3.6-4.8V55.1
			C216.2,53.8,215.2,52.7,213.8,52.7C213.8,52.7,213.8,52.7,213.8,52.7L213.8,52.7z"/>
		<path class="st20" d="M216.3,54v1c0-1.3-1.1-2.4-2.4-2.4c-0.4,0-0.8,0.1-1.2,0.3l-112.5,65c-1.1,0.6-2,1.5-2.6,2.6
			c0,0,0,0.1,0,0.1l-7-4c0.4-0.8,1.1-1.5,1.8-2l114.5-66c1.6-0.8,3.5-0.8,5.2,0l1.6,0.9C215.2,50.6,216.2,52.2,216.3,54z"/>
		<path class="st7" d="M118.6,121.6c0-0.1,0-0.1,0-0.2v-0.8l-1.3,0.8c-0.1,0-0.1,0-0.1-0.1v-0.3c0-0.1,0-0.1,0-0.2
			c0-0.1,0-0.1,0-0.2l1.4-3.8c0-0.1,0-0.1,0.1-0.1c0,0,0.1-0.1,0.1-0.1l0.2-0.1c0.1,0,0.1,0,0.1,0c0,0.1,0,0.1,0,0.2v2.9l0.3-0.2
			c0.1,0,0.1,0,0.1,0c0,0.1,0,0.1,0,0.2v0.2c0,0.1,0,0.1,0,0.2c0,0.1-0.1,0.1-0.1,0.1l-0.3,0.2v0.8c0,0.1,0,0.1,0,0.2
			c0,0.1-0.1,0.1-0.1,0.1L118.6,121.6C118.7,121.6,118.6,121.6,118.6,121.6z M118.7,119.8v-2.1l-0.9,2.6L118.7,119.8z"/>
		<path class="st7" d="M120.2,120.2c-0.3-0.5-0.4-1.1-0.4-1.7c0-0.7,0.1-1.5,0.4-2.1c0.2-0.5,0.6-1,1.1-1.3c0.2-0.1,0.3-0.2,0.5-0.2
			c0.1,0,0.3,0,0.4,0.1c0,0,0,0,0,0.1c0,0,0,0.1,0,0.1l-0.1,0.4c0,0,0,0.1-0.1,0.1h0c-0.2-0.1-0.5,0-0.7,0.1
			c-0.3,0.2-0.6,0.5-0.7,0.9c-0.2,0.5-0.3,1-0.3,1.6c0,0.4,0,0.9,0.3,1.3c0.2,0.2,0.4,0.2,0.7,0.1c0.1-0.1,0.2-0.1,0.3-0.2
			c0.1-0.1,0.2-0.2,0.3-0.3v-1.4l-0.5,0.3c-0.1,0-0.1,0-0.1,0c0-0.1,0-0.1,0-0.2v-0.2c0-0.1,0-0.1,0-0.2c0-0.1,0.1-0.1,0.1-0.1
			l0.9-0.5c0.1,0,0.1,0,0.1,0c0,0.1,0,0.1,0,0.2v1.9c0,0.1,0,0.1,0,0.2c0,0,0,0.1-0.1,0.1c-0.2,0.4-0.6,0.8-1,1
			C120.8,120.5,120.4,120.5,120.2,120.2z"/>
		<path class="st7" d="M131.1,113.6c0,0.6-0.3,1.2-0.8,1.6c-0.4,0.2-0.8-0.1-0.8-0.7c0-0.6,0.3-1.2,0.8-1.6
			C130.8,112.6,131.1,112.9,131.1,113.6z"/>
		<path class="st7" d="M130.3,110.9c-0.9,0.6-1.5,1.6-1.8,2.6c-0.1,0.2,0,0.5,0.1,0.5l0,0c0.1,0.1,0.4-0.1,0.4-0.4
			c0.2-0.7,0.6-1.4,1.2-1.9c0.4-0.3,0.9-0.2,1.1,0.2c0.1,0.1,0.1,0.2,0.1,0.2c0.1,0.2,0.3,0.1,0.4-0.1l0,0c0.1-0.2,0.1-0.4,0.1-0.6
			c-0.2-0.6-0.8-1-1.4-0.8C130.6,110.8,130.5,110.9,130.3,110.9z"/>
		<path class="st7" d="M130.3,109.1c-1.3,0.9-2.3,2.3-2.7,3.8c-0.1,0.2-0.1,0.5,0.1,0.6l0,0c0.1,0.1,0.3-0.1,0.4-0.4
			c0.4-1.3,1.1-2.4,2.2-3.1c0.7-0.5,1.6-0.3,2,0.3c0.1,0.1,0.1,0.2,0.2,0.3c0.1,0.2,0.3,0.1,0.4-0.1l0,0c0.1-0.2,0.1-0.4,0.1-0.6
			c-0.4-0.9-1.5-1.3-2.4-0.9C130.6,108.9,130.4,109,130.3,109.1z"/>
		<path class="st7" d="M150,100.5c0,0,0-0.1,0-0.1c0-0.1,0-0.1,0.1-0.2l1.1-1.9l0.1-0.1c0,0,0.1-0.1,0.1-0.1l0.4-0.2
			c0,0,0.1,0,0.1,0c0,0,0,0.1,0,0.1v5c0,0.1,0,0.1,0,0.2c0,0-0.1,0.1-0.1,0.1l-0.4,0.2c0,0-0.1,0-0.1,0c0,0,0-0.1,0-0.1v-3.8
			l-0.7,1.3c0,0,0,0.1-0.1,0.1c0,0-0.1,0-0.1,0L150,100.5z"/>
		<path class="st7" d="M152.6,99c0,0,0-0.1,0-0.1c0-0.1,0-0.1,0-0.2l1.1-1.9c0,0,0.1-0.1,0.1-0.1c0,0,0.1-0.1,0.1-0.1l0.4-0.2
			c0,0,0.1,0,0.1,0c0,0,0,0.1,0,0.1v5c0,0.1,0,0.1,0,0.2c0,0-0.1,0.1-0.1,0.1l-0.4,0.2c0,0-0.1,0-0.1,0s0-0.1,0-0.1V98l-0.7,1.3
			c0,0-0.1,0.1-0.1,0.1c0,0-0.1,0-0.1,0L152.6,99z"/>
		<path class="st7" d="M155.9,96.9c0,0,0.1,0,0.1,0c0,0,0,0.1,0,0.1v0.8c0,0.1,0,0.1,0,0.2c0,0-0.1,0.1-0.1,0.1l-0.5,0.3
			c0,0-0.1,0-0.1,0s0-0.1,0-0.1v-0.8c0-0.1,0-0.1,0-0.2c0-0.1,0-0.1,0.1-0.1L155.9,96.9z M155.9,99.6c0,0,0.1,0,0.1,0
			c0,0,0,0.1,0,0.1v0.8c0,0.1,0,0.1,0,0.2c0,0-0.1,0.1-0.1,0.1l-0.5,0.3c0,0-0.1,0-0.1,0c0,0,0-0.1,0-0.1v-0.8c0-0.1,0-0.1,0-0.2
			c0-0.1,0-0.1,0.1-0.1L155.9,99.6z"/>
		<path class="st7" d="M158.5,99.2c0,0-0.1,0-0.1,0c0,0,0-0.1,0-0.1v-0.9l-1.5,0.9c0,0-0.1,0-0.1,0c0,0,0-0.1,0-0.1v-0.6
			c0-0.1,0-0.1,0-0.2c0-0.1,0-0.1,0.1-0.2l1.5-3.8c0-0.1,0.1-0.2,0.2-0.3l0.4-0.2c0,0,0.1,0,0.1,0c0,0,0,0.1,0,0.1v3.1l0.4-0.3
			c0,0,0.1,0,0.1,0c0,0,0,0.1,0,0.1v0.5c0,0.1,0,0.1,0,0.2c0,0-0.1,0.1-0.1,0.1l-0.4,0.2v0.9c0,0.1,0,0.1,0,0.2c0,0-0.1,0.1-0.1,0.1
			L158.5,99.2z M158.4,97.2v-1.6l-0.9,2.1L158.4,97.2z"/>
		<path class="st7" d="M160.5,92.9c0-0.1,0-0.1,0-0.2c0,0,0.1-0.1,0.1-0.1l1.9-1.1c0,0,0.1,0,0.1,0c0,0,0,0.1,0,0.1v0.6
			c0,0.1,0,0.1,0,0.2c0,0-0.1,0.1-0.1,0.1l-1.4,0.8v1c0.1-0.1,0.2-0.2,0.3-0.3l0.2-0.1c0.2-0.1,0.3-0.2,0.5-0.2c0.1,0,0.3,0,0.4,0.1
			c0.1,0.1,0.2,0.2,0.3,0.4c0.1,0.2,0.1,0.5,0.1,0.7c0,0.3,0,0.6-0.1,0.9c-0.1,0.3-0.2,0.5-0.3,0.7c-0.1,0.2-0.2,0.4-0.4,0.6
			c-0.2,0.2-0.3,0.3-0.5,0.4c-0.2,0.1-0.4,0.2-0.6,0.2c-0.1,0-0.3,0-0.4-0.1c-0.1-0.1-0.2-0.2-0.2-0.3c-0.1-0.2-0.1-0.3-0.1-0.5
			c0-0.1,0-0.1,0-0.2c0,0,0.1-0.1,0.1-0.1l0.4-0.2c0,0,0.1,0,0.1,0c0,0,0.1,0.1,0.1,0.1c0,0.1,0,0.2,0.1,0.2c0,0,0.1,0.1,0.1,0.1
			c0.1,0,0.1,0,0.2,0c0.1,0,0.1-0.1,0.2-0.1c0.2-0.1,0.4-0.3,0.5-0.5c0.1-0.2,0.2-0.5,0.2-0.8c0-0.2,0-0.4-0.2-0.5
			c-0.1-0.1-0.3-0.1-0.5,0c-0.1,0-0.2,0.1-0.2,0.2l-0.1,0.2l-0.1,0.1c0,0-0.1,0.1-0.1,0.1l-0.5,0.3c0,0-0.1,0-0.1,0c0,0,0-0.1,0-0.1
			L160.5,92.9z"/>
		<polygon class="st7" points="104.3,130.5 104.3,128.9 105.6,128.1 105.6,129.7 		"/>
		<polygon class="st7" points="106.3,129.3 106.3,126.1 107.7,125.3 107.7,128.5 		"/>
		<polygon class="st7" points="108.4,128.1 108.4,123.3 109.8,122.5 109.8,127.3 		"/>
		<polygon class="st7" points="110.5,126.9 110.5,120.5 111.9,119.7 111.9,126.1 		"/>
		<path class="st7" d="M207.8,65.5c-0.1-0.2-0.3-0.3-0.5-0.2l-5.2,3c-0.4,0.4-0.6,1-0.6,1.6v2.9c0,0.3,0.1,0.6,0.2,0.9
			c0,0.1,0.1,0.1,0.2,0.2c0.1,0.1,0.2,0.1,0.3,0l5.2-3c0.4-0.4,0.6-1,0.6-1.6v-2.9C208.1,66.1,208,65.8,207.8,65.5z M201.9,73.3
			c-0.1-0.1-0.1-0.3-0.1-0.4V70c0-0.4,0.1-0.9,0.5-1.2l5.2-3c0.1,0,0.1,0,0.2,0c0,0,0.1,0,0.1,0.1c0.1,0.1,0.1,0.3,0.1,0.4v2.9
			c0,0.4-0.1,0.9-0.5,1.2l-5.2,3C202,73.4,201.9,73.4,201.9,73.3z"/>
		<path class="st7" d="M203.3,68.7v3.4l-0.8,0.5c-0.1,0-0.1,0-0.1,0c0,0,0,0,0,0V70c0-0.3,0.1-0.7,0.3-0.9L203.3,68.7z"/>
		<polygon class="st7" points="203.6,68.5 204.6,68 204.6,71.4 203.6,72 		"/>
		<polygon class="st7" points="205,67.8 206,67.2 206,70.6 205,71.2 		"/>
		<path class="st7" d="M207.3,66.6v2.5c0,0.5-0.2,0.9-0.6,1.1l-0.3,0.2V67l0.8-0.4C207.2,66.5,207.3,66.5,207.3,66.6
			C207.3,66.6,207.3,66.6,207.3,66.6z"/>
		<path class="st7" d="M208.3,66.3c0.1-0.1,0.3,0.3,0.3,0.9v0.5c0,0.4-0.1,0.9-0.3,1.3l-0.3,0.2v-2.8L208.3,66.3z"/>
		<polygon class="st7" points="193.7,75.1 198.7,70.7 197.2,77.2 196.4,74.5 		"/>
		<g id="freepik--clip-board--inject-4">
			<g id="freepik--Data--inject-4">
				<path class="st21" d="M206.4,194.2l-98.3,56.7c-1.3,0.8-2.4-0.1-2.4-1.8v-55.9c0-1.8,0.9-3.5,2.4-4.6l98.3-56.8
					c1.3-0.8,2.4,0.1,2.4,1.8v56C208.8,191.4,207.9,193.1,206.4,194.2z"/>
				<path class="st15" d="M119.6,191.4c-0.1,0-0.2,0-0.2-0.1c-0.1-0.1,0-0.3,0.1-0.3l0,0l0.6-0.4c0.1-0.1,0.3,0,0.3,0.1
					c0.1,0.1,0,0.3-0.1,0.3L119.6,191.4L119.6,191.4z"/>
				<path class="st15" d="M121.5,190.3c-0.1,0-0.2,0-0.2-0.1c-0.1-0.1,0-0.2,0.1-0.3l0,0l1.3-0.7c0.1-0.1,0.3,0,0.3,0.1
					c0.1,0.1,0,0.3-0.1,0.3L121.5,190.3C121.6,190.3,121.5,190.3,121.5,190.3z M124,188.8c-0.1,0-0.2,0-0.2-0.1
					c-0.1-0.1,0-0.3,0.1-0.3l0,0l1.3-0.7c0.1-0.1,0.3-0.1,0.3,0c0.1,0.1,0.1,0.3,0,0.3c0,0,0,0-0.1,0L124,188.8
					C124.1,188.8,124.1,188.8,124,188.8z M126.6,187.4c-0.1,0-0.2,0-0.2-0.1c-0.1-0.1,0-0.3,0.1-0.3l0,0l1.3-0.7
					c0.1-0.1,0.3,0,0.3,0.1c0.1,0.1,0,0.3-0.1,0.3L126.6,187.4C126.7,187.3,126.6,187.3,126.6,187.4z M129.1,185.9
					c-0.1,0-0.2,0-0.2-0.1c-0.1-0.1,0-0.2,0.1-0.3l0,0l1.3-0.7c0.1-0.1,0.3,0,0.3,0.1c0.1,0.1,0,0.3-0.1,0.3l0,0L129.1,185.9
					C129.2,185.9,129.2,185.9,129.1,185.9z M131.7,184.4c-0.1,0-0.2,0-0.2-0.1c-0.1-0.1,0-0.3,0.1-0.3l0,0l1.3-0.7
					c0.1-0.1,0.3,0,0.3,0.1c0.1,0.1,0,0.2-0.1,0.3l0,0L131.7,184.4C131.7,184.4,131.7,184.4,131.7,184.4L131.7,184.4z M134.1,182.9
					c-0.1,0-0.2-0.1-0.2-0.2s0-0.2,0.1-0.2l1.3-0.7c0.1-0.1,0.3,0,0.3,0.1c0.1,0.1,0,0.3-0.1,0.3L134.1,182.9
					C134.2,182.9,134.1,182.9,134.1,182.9L134.1,182.9z M136.6,181.6c-0.1,0-0.2-0.1-0.2-0.3c0-0.1,0-0.2,0.1-0.2l1.3-0.7
					c0.1-0.1,0.2,0,0.3,0.1l0,0c0.1,0.1,0,0.3-0.1,0.3l0,0L136.6,181.6C136.7,181.6,136.7,181.6,136.6,181.6L136.6,181.6z
					 M139.2,180.1c-0.1,0-0.2,0-0.2-0.1c-0.1-0.1,0-0.3,0.1-0.3l1.3-0.7c0.1-0.1,0.3,0,0.3,0.1c0.1,0.1,0,0.3-0.1,0.3l0,0
					L139.2,180.1C139.3,180.1,139.2,180.1,139.2,180.1L139.2,180.1z M141.7,178.6c-0.1,0-0.2,0-0.2-0.1c-0.1-0.1,0-0.3,0.1-0.3
					l1.3-0.7c0.1-0.1,0.3,0,0.3,0.1c0.1,0.1,0,0.3-0.1,0.3L141.7,178.6C141.8,178.7,141.8,178.7,141.7,178.6L141.7,178.6z
					 M144.3,177.2c-0.1,0-0.2,0-0.2-0.1c-0.1-0.1,0-0.3,0.1-0.3l0,0l1.3-0.7c0.1-0.1,0.3,0,0.3,0.1l0,0c0.1,0.1,0,0.3-0.1,0.3
					L144.3,177.2C144.4,177.2,144.3,177.2,144.3,177.2L144.3,177.2z M146.8,175.7c-0.1,0-0.2,0-0.2-0.1c-0.1-0.1,0-0.2,0.1-0.3l0,0
					l1.3-0.7c0.1-0.1,0.3,0,0.3,0.1c0.1,0.1,0,0.3-0.1,0.3L146.8,175.7C146.9,175.7,146.8,175.7,146.8,175.7z M149.2,174.2
					c-0.1,0-0.2,0-0.2-0.1c-0.1-0.1,0-0.3,0.1-0.3l0,0l1.3-0.7c0.1-0.1,0.3,0,0.3,0.1c0.1,0.1,0,0.3-0.1,0.3l0,0L149.2,174.2
					L149.2,174.2z M151.8,172.8c-0.1,0-0.2,0-0.2-0.1c-0.1-0.1,0-0.3,0.1-0.3l0,0l1.3-0.7c0.1-0.1,0.3,0,0.3,0.1
					c0,0.1,0,0.3-0.1,0.3L151.8,172.8L151.8,172.8z M154.3,171.3c-0.1,0-0.2,0-0.2-0.1c-0.1-0.1,0-0.3,0.1-0.3l1.3-0.7
					c0.1-0.1,0.3,0,0.3,0.1s0,0.3-0.1,0.3l0,0L154.3,171.3C154.4,171.3,154.4,171.3,154.3,171.3L154.3,171.3z M156.9,169.8
					c-0.1,0-0.2,0-0.2-0.1c-0.1-0.1,0-0.2,0.1-0.3l0,0l1.3-0.7c0.1-0.1,0.3,0,0.3,0.1c0.1,0.1,0,0.2-0.1,0.3l0,0L156.9,169.8
					L156.9,169.8z M159.4,168.5c-0.1,0-0.2-0.1-0.2-0.2c0-0.1,0-0.2,0.1-0.2l1.3-0.7c0.1-0.1,0.3,0,0.3,0.1s0,0.3-0.1,0.3l0,0
					L159.4,168.5L159.4,168.5z M161.8,167c-0.1,0-0.2,0-0.2-0.1c-0.1-0.1,0-0.3,0.1-0.3l1.3-0.7c0.1-0.1,0.2,0,0.3,0.1l0,0
					c0.1,0.1,0,0.3-0.1,0.3l0,0L161.8,167C161.9,167,161.9,167,161.8,167L161.8,167z M164.4,165.5c-0.1,0-0.2,0-0.2-0.1
					c-0.1-0.1,0-0.3,0.1-0.3l1.3-0.7c0.1-0.1,0.3,0,0.3,0.1c0.1,0.1,0,0.3-0.1,0.3l0,0L164.4,165.5
					C164.5,165.5,164.4,165.5,164.4,165.5L164.4,165.5z M166.9,164.1c-0.1,0-0.2,0-0.2-0.1c-0.1-0.1,0-0.3,0.1-0.3l1.3-0.7
					c0.1-0.1,0.3,0,0.3,0.1c0,0.1,0,0.3-0.1,0.3l0,0L166.9,164.1C167,164.1,167,164.1,166.9,164.1L166.9,164.1z M169.5,162.6
					c-0.1,0-0.2,0-0.2-0.1c-0.1-0.1,0-0.3,0.1-0.3l0,0l1.3-0.7c0.1-0.1,0.3,0,0.3,0.1l0,0c0.1,0.1,0,0.3-0.1,0.3L169.5,162.6
					L169.5,162.6z M172,161.1c-0.1,0-0.2,0-0.2-0.1c-0.1-0.1,0-0.2,0.1-0.3l0,0l1.3-0.7c0.1-0.1,0.3,0,0.3,0.1l0,0
					c0.1,0.1,0,0.3-0.1,0.3L172,161.1C172.1,161.1,172.1,161.1,172,161.1L172,161.1z M174.4,159.7c-0.1,0-0.2,0-0.2-0.1
					c-0.1-0.1,0-0.2,0.1-0.3l0,0l1.3-0.7c0.1-0.1,0.3,0,0.3,0.1c0.1,0.1,0,0.3-0.1,0.3l0,0L174.4,159.7
					C174.5,159.7,174.5,159.7,174.4,159.7L174.4,159.7z M177,158.2c-0.1,0-0.2,0-0.2-0.1c-0.1-0.1,0-0.3,0.1-0.3l0,0l1.3-0.7
					c0.1-0.1,0.3,0,0.3,0.1c0,0.1,0,0.3-0.1,0.3L177,158.2L177,158.2L177,158.2z M179.5,156.7c-0.1,0-0.2-0.1-0.2-0.1
					c-0.1-0.1,0-0.3,0.1-0.3l0,0l1.3-0.7c0.1-0.1,0.3,0,0.3,0.1s0,0.3-0.1,0.3l0,0L179.5,156.7C179.6,156.7,179.6,156.8,179.5,156.7
					L179.5,156.7z M182.1,155.3c-0.1,0-0.2,0-0.2-0.1c-0.1-0.1,0-0.3,0.1-0.3c0,0,0,0,0.1,0l1.3-0.7c0.1-0.1,0.3,0,0.3,0.1
					c0.1,0.1,0,0.2-0.1,0.3l0,0l-1.3,0.7C182.2,155.3,182.1,155.3,182.1,155.3L182.1,155.3z M184.6,153.9c-0.1,0-0.2,0-0.2-0.1
					c-0.1-0.1,0-0.3,0.1-0.3l0,0l1.3-0.7c0.1-0.1,0.3,0,0.3,0.1l0,0c0.1,0.1,0,0.3-0.1,0.3L184.6,153.9
					C184.7,153.9,184.7,153.9,184.6,153.9L184.6,153.9z"/>
				<path class="st15" d="M187.1,152.4c-0.1,0-0.2,0-0.2-0.1c-0.1-0.1,0-0.3,0.1-0.3l0.6-0.4c0.1-0.1,0.2,0,0.3,0.1l0,0
					c0.1,0.1,0,0.3-0.1,0.3l0,0L187.1,152.4C187.2,152.4,187.2,152.4,187.1,152.4z"/>
				<path class="st15" d="M119.6,200.5c-0.1,0-0.2,0-0.2-0.1c-0.1-0.1,0-0.2,0.1-0.3l0,0l0.6-0.4c0.1-0.1,0.3,0,0.3,0.1
					c0.1,0.1,0,0.3-0.1,0.3L119.6,200.5L119.6,200.5z"/>
				<path class="st15" d="M121.5,199.4c-0.1,0-0.2,0-0.2-0.1c-0.1-0.1,0-0.3,0.1-0.3l0,0l1.3-0.7c0.1-0.1,0.3,0,0.3,0.1l0,0
					c0.1,0.1,0,0.3-0.1,0.3L121.5,199.4C121.6,199.4,121.5,199.4,121.5,199.4z M124,197.9c-0.1,0-0.2,0-0.2-0.1
					c-0.1-0.1,0-0.3,0.1-0.3l0,0l1.3-0.7c0.1-0.1,0.3,0,0.3,0.1l0,0c0.1,0.1,0,0.3-0.1,0.3L124,197.9L124,197.9z M126.6,196.4
					c-0.1,0-0.2,0-0.2-0.1c-0.1-0.1,0-0.2,0.1-0.3l0,0l1.3-0.7c0.1-0.1,0.3,0,0.3,0.1c0.1,0.1,0,0.3-0.1,0.3l0,0L126.6,196.4
					L126.6,196.4L126.6,196.4z M129.1,195.1c-0.1,0-0.2-0.1-0.2-0.2s0-0.2,0.1-0.2l1.3-0.7c0.1-0.1,0.3,0,0.3,0.1l0,0
					c0.1,0.1,0,0.2-0.1,0.3l0,0L129.1,195.1C129.2,195.1,129.2,195.1,129.1,195.1L129.1,195.1z M131.7,193.6c-0.1,0-0.2,0-0.2-0.1
					c-0.1-0.1,0-0.3,0.1-0.3l0,0l1.3-0.7c0.1-0.1,0.3,0,0.3,0.1c0.1,0.1,0,0.3-0.1,0.3l0,0L131.7,193.6
					C131.7,193.6,131.7,193.6,131.7,193.6L131.7,193.6z M134.1,192.1c-0.1,0-0.2,0-0.2-0.1c-0.1-0.1,0-0.3,0.1-0.3l1.3-0.7
					c0.1-0.1,0.3,0,0.3,0.1c0.1,0.1,0,0.3-0.1,0.3L134.1,192.1C134.2,192.1,134.1,192.1,134.1,192.1L134.1,192.1z M136.6,190.7
					c-0.1,0-0.2,0-0.2-0.1c-0.1-0.1,0-0.3,0.1-0.3l1.3-0.7c0.1-0.1,0.3,0,0.3,0.1c0.1,0.1,0,0.2-0.1,0.3l0,0L136.6,190.7
					C136.7,190.7,136.7,190.7,136.6,190.7L136.6,190.7z M139.2,189.2c-0.1,0-0.2,0-0.2-0.1c-0.1-0.1,0-0.3,0.1-0.3l1.3-0.7
					c0.1-0.1,0.2,0,0.3,0.1l0,0c0.1,0.1,0,0.3-0.1,0.3l0,0L139.2,189.2C139.3,189.2,139.2,189.2,139.2,189.2L139.2,189.2z
					 M141.7,187.7c-0.1,0-0.2,0-0.2-0.1c-0.1-0.1,0-0.3,0.1-0.3l1.3-0.7c0.1-0.1,0.3,0,0.3,0.1c0.1,0.1,0,0.3-0.1,0.3L141.7,187.7
					C141.8,187.7,141.8,187.7,141.7,187.7L141.7,187.7z M144.3,186.3c-0.1,0-0.2,0-0.2-0.1c-0.1-0.1,0-0.3,0.1-0.3l0,0l1.3-0.7
					c0.1-0.1,0.3,0,0.3,0.1c0.1,0.1,0,0.3-0.1,0.3L144.3,186.3C144.4,186.3,144.3,186.3,144.3,186.3L144.3,186.3z M146.8,184.8
					c-0.1,0-0.2,0-0.2-0.1c-0.1-0.1,0-0.3,0.1-0.3l0,0l1.3-0.7c0.1-0.1,0.3,0,0.3,0.1l0,0c0.1,0.1,0,0.3-0.1,0.3L146.8,184.8
					C146.9,184.8,146.8,184.8,146.8,184.8L146.8,184.8z M149.2,183.3c-0.1,0-0.2,0-0.2-0.1c-0.1-0.1,0-0.3,0.1-0.3l0,0l1.3-0.7
					c0.1-0.1,0.3,0,0.3,0.1l0,0c0.1,0.1,0,0.3-0.1,0.3L149.2,183.3C149.3,183.3,149.3,183.3,149.2,183.3L149.2,183.3z M151.8,182
					c-0.1,0-0.2,0-0.2-0.1c-0.1-0.1,0-0.2,0.1-0.3l0,0l1.3-0.7c0.1-0.1,0.3,0,0.3,0.1s0,0.3-0.1,0.3L151.8,182
					C151.9,182,151.8,182,151.8,182L151.8,182z M154.3,180.5c-0.1,0-0.2-0.1-0.2-0.2s0-0.2,0.1-0.2l1.3-0.7c0.1-0.1,0.3,0,0.3,0.1
					c0.1,0.1,0,0.2-0.1,0.3l0,0L154.3,180.5L154.3,180.5z M156.9,179c-0.1,0-0.2,0-0.2-0.1c-0.1-0.1,0-0.3,0.1-0.3l0,0l1.3-0.7
					c0.1-0.1,0.3,0,0.3,0.1s0,0.3-0.1,0.3L156.9,179L156.9,179z M159.4,177.6c-0.1,0-0.2-0.1-0.2-0.1c-0.1-0.1,0-0.3,0.1-0.3
					l1.3-0.7c0.1-0.1,0.3,0,0.3,0.1s0,0.3-0.1,0.3L159.4,177.6L159.4,177.6L159.4,177.6z M161.8,176.1c-0.1,0-0.2,0-0.2-0.1
					c-0.1-0.1,0-0.3,0.1-0.3l1.3-0.7c0.1-0.1,0.3,0,0.3,0.1c0.1,0.1,0,0.2-0.1,0.3l0,0L161.8,176.1
					C161.9,176.1,161.9,176.1,161.8,176.1L161.8,176.1z M164.4,174.6c-0.1,0-0.2,0-0.2-0.1c-0.1-0.1,0-0.3,0.1-0.3l1.3-0.7
					c0.1-0.1,0.3,0,0.3,0.1l0,0c0.1,0.1,0,0.3-0.1,0.3L164.4,174.6C164.5,174.6,164.4,174.6,164.4,174.6L164.4,174.6z M166.9,173.2
					c-0.1,0-0.2,0-0.2-0.1c-0.1-0.1,0-0.3,0.1-0.3l1.3-0.7c0.1-0.1,0.3,0,0.3,0.1c0.1,0.1,0,0.3-0.1,0.3L166.9,173.2
					C167,173.2,167,173.2,166.9,173.2L166.9,173.2z M169.5,171.7c-0.1,0-0.2,0-0.2-0.1c-0.1-0.1,0-0.3,0.1-0.3l0,0l1.3-0.7
					c0.1-0.1,0.3,0,0.3,0.1c0.1,0.1,0,0.3-0.1,0.3L169.5,171.7L169.5,171.7L169.5,171.7z M172,170.2c-0.1,0-0.2,0-0.2-0.1
					c-0.1-0.1,0-0.3,0.1-0.3l0,0l1.3-0.7c0.1-0.1,0.3,0,0.3,0.1c0.1,0.1,0,0.3-0.1,0.3L172,170.2C172.1,170.2,172.1,170.2,172,170.2
					L172,170.2z M174.4,168.8c-0.1,0-0.2,0-0.2-0.1c-0.1-0.1,0-0.3,0.1-0.3l0,0l1.3-0.7c0.1-0.1,0.3,0,0.3,0.1l0,0
					c0.1,0.1,0,0.3-0.1,0.3L174.4,168.8C174.5,168.8,174.5,168.8,174.4,168.8L174.4,168.8z M177,167.4c-0.1,0-0.2,0-0.2-0.1
					c-0.1-0.1,0-0.3,0.1-0.3l1.3-0.7c0.1-0.1,0.3,0,0.3,0.1c0,0.1,0,0.3-0.1,0.3l0,0L177,167.4L177,167.4z M179.5,165.9
					c-0.1,0-0.2-0.1-0.2-0.2s0-0.2,0.1-0.2l1.3-0.7c0.1-0.1,0.3,0,0.3,0.1c0.1,0.1,0,0.2-0.1,0.3l0,0L179.5,165.9
					C179.6,165.9,179.6,165.9,179.5,165.9L179.5,165.9z M182.1,164.5c-0.1,0-0.2,0-0.2-0.1c-0.1-0.1,0-0.3,0.1-0.3l0,0l1.3-0.7
					c0.1-0.1,0.2,0,0.3,0.1l0,0c0.1,0.1,0,0.3-0.1,0.3l0,0L182.1,164.5C182.2,164.5,182.1,164.5,182.1,164.5L182.1,164.5z
					 M184.6,163c-0.1,0-0.2-0.1-0.2-0.2s0-0.2,0.1-0.2l1.3-0.7c0.1-0.1,0.3,0,0.3,0.1s0,0.3-0.1,0.3L184.6,163
					C184.7,163,184.7,163,184.6,163L184.6,163z"/>
				<path class="st15" d="M187.1,161.5c-0.1,0-0.2,0-0.2-0.1c-0.1-0.1,0-0.3,0.1-0.3l0.6-0.4c0.1-0.1,0.3,0,0.3,0.1
					c0.1,0.1,0,0.2-0.1,0.3l0,0L187.1,161.5C187.2,161.5,187.2,161.5,187.1,161.5z"/>
				<path class="st15" d="M119.6,209.6c-0.1,0-0.2-0.1-0.2-0.1c-0.1-0.1,0-0.3,0.1-0.3l0,0l0.6-0.4c0.1-0.1,0.3,0,0.3,0.1
					c0.1,0.1,0,0.3-0.1,0.3L119.6,209.6L119.6,209.6z"/>
				<path class="st15" d="M121.5,208.6c-0.1,0-0.2,0-0.2-0.1c-0.1-0.1,0-0.3,0.1-0.3l0,0l1.3-0.7c0.1-0.1,0.3,0,0.3,0.1l0,0
					c0.1,0.1,0,0.3-0.1,0.3L121.5,208.6C121.6,208.5,121.5,208.6,121.5,208.6z M124,207.1c-0.1,0-0.2,0-0.2-0.1
					c-0.1-0.1,0-0.2,0.1-0.3l0,0l1.3-0.7c0.1-0.1,0.3,0,0.3,0.1c0.1,0.1,0,0.3-0.1,0.3l0,0L124,207.1
					C124.1,207.1,124.1,207.1,124,207.1z M126.6,205.6c-0.1,0-0.2-0.1-0.2-0.2c0-0.1,0-0.2,0.1-0.2l1.3-0.7c0.1-0.1,0.3,0,0.3,0.1
					l0,0c0.1,0.1,0,0.2-0.1,0.3l0,0L126.6,205.6C126.7,205.6,126.6,205.6,126.6,205.6z M129.1,204.1c-0.1,0-0.2,0-0.2-0.1
					c-0.1-0.1,0-0.3,0.1-0.3l0,0l1.3-0.7c0.1-0.1,0.3,0,0.3,0.1c0.1,0.1,0,0.3-0.1,0.3l0,0L129.1,204.1L129.1,204.1z M131.7,202.7
					c-0.1,0-0.2,0-0.2-0.1c-0.1-0.1,0-0.2,0.1-0.3l0,0l1.3-0.7c0.1-0.1,0.3,0,0.3,0.1c0.1,0.1,0,0.3-0.1,0.3l0,0L131.7,202.7
					C131.7,202.7,131.7,202.7,131.7,202.7L131.7,202.7z M134.1,201.2c-0.1,0-0.2,0-0.2-0.1c-0.1-0.1,0-0.3,0.1-0.3l0,0l1.3-0.7
					c0.1-0.1,0.3,0,0.3,0.1c0.1,0.1,0,0.2-0.1,0.3l0,0L134.1,201.2C134.2,201.2,134.1,201.2,134.1,201.2L134.1,201.2z M136.6,199.7
					c-0.1,0-0.2,0-0.2-0.1c-0.1-0.1,0-0.3,0.1-0.3l1.3-0.7c0.1-0.1,0.2,0,0.3,0.1l0,0c0.1,0.1,0,0.3-0.1,0.3l0,0L136.6,199.7
					C136.7,199.7,136.7,199.8,136.6,199.7L136.6,199.7z M139.2,198.3c-0.1,0-0.2-0.1-0.2-0.3c0-0.1,0-0.2,0.1-0.2l1.3-0.7
					c0.1-0.1,0.2,0,0.3,0.1l0,0c0.1,0.1,0,0.3-0.1,0.3l0,0L139.2,198.3C139.3,198.3,139.2,198.3,139.2,198.3L139.2,198.3z
					 M141.7,196.8c-0.1,0-0.2,0-0.2-0.1c-0.1-0.1,0-0.3,0.1-0.3l1.3-0.7c0.1-0.1,0.3,0,0.3,0.1c0.1,0.1,0,0.3-0.1,0.3L141.7,196.8
					C141.8,196.8,141.8,196.8,141.7,196.8L141.7,196.8z M144.3,195.4c-0.1,0-0.2,0-0.2-0.1c-0.1-0.1,0-0.3,0.1-0.3l0,0l1.3-0.7
					c0.1-0.1,0.3,0,0.3,0.1l0,0c0.1,0.1,0,0.3-0.1,0.3L144.3,195.4C144.4,195.4,144.3,195.4,144.3,195.4L144.3,195.4z M146.8,194
					c-0.1,0-0.2,0-0.2-0.1c-0.1-0.1,0-0.3,0.1-0.3l0,0l1.3-0.7c0.1-0.1,0.3,0,0.3,0.1l0,0c0.1,0.1,0,0.3-0.1,0.3L146.8,194
					C146.9,194,146.8,194,146.8,194L146.8,194z M149.2,192.5c-0.1,0-0.2,0-0.2-0.1c-0.1-0.1,0-0.2,0.1-0.3l0,0l1.3-0.7
					c0.1-0.1,0.3,0,0.3,0.1c0,0.1,0,0.3-0.1,0.3L149.2,192.5C149.3,192.5,149.3,192.5,149.2,192.5L149.2,192.5z M151.8,191
					c-0.1,0-0.2-0.1-0.2-0.2c0-0.1,0-0.2,0.1-0.2l1.3-0.7c0.1-0.1,0.3,0,0.3,0.1l0,0c0.1,0.1,0,0.2-0.1,0.3l0,0L151.8,191
					C151.9,191,151.8,191,151.8,191L151.8,191z M154.3,189.6c-0.1,0-0.2,0-0.2-0.1c-0.1-0.1,0-0.3,0.1-0.3l0,0l1.3-0.7
					c0.1-0.1,0.3,0,0.3,0.1c0,0.1,0,0.3-0.1,0.3L154.3,189.6C154.4,189.6,154.4,189.6,154.3,189.6L154.3,189.6z M156.9,188.1
					c-0.1,0-0.2,0-0.2-0.1c-0.1-0.1,0-0.3,0.1-0.3l1.3-0.7c0.1-0.1,0.3,0,0.3,0.1s0,0.3-0.1,0.3l0,0L156.9,188.1
					C156.9,188.1,156.9,188.1,156.9,188.1L156.9,188.1z M159.4,186.6c-0.1,0-0.2,0-0.2-0.1c-0.1-0.1,0-0.3,0.1-0.3l0,0l1.3-0.7
					c0.1-0.1,0.3,0,0.3,0.1c0.1,0.1,0,0.2-0.1,0.3l0,0L159.4,186.6L159.4,186.6z M161.8,185.2c-0.1,0-0.2,0-0.2-0.1
					c-0.1-0.1,0-0.3,0.1-0.3l1.3-0.7c0.1-0.1,0.2,0,0.3,0.1l0,0c0.1,0.1,0,0.3-0.1,0.3l0,0L161.8,185.2
					C161.9,185.2,161.9,185.2,161.8,185.2L161.8,185.2z M164.4,183.7c-0.1,0-0.2,0-0.2-0.1c-0.1-0.1,0-0.3,0.1-0.3l1.3-0.7
					c0.1-0.1,0.2,0,0.3,0.1l0,0c0.1,0.1,0,0.3-0.1,0.3l0,0L164.4,183.7C164.5,183.7,164.4,183.7,164.4,183.7L164.4,183.7z
					 M166.9,182.3c-0.1,0-0.2,0-0.2-0.1c-0.1-0.1,0-0.3,0.1-0.3l1.3-0.7c0.1-0.1,0.3,0,0.3,0.1c0.1,0.1,0,0.3-0.1,0.3L166.9,182.3
					C167,182.3,167,182.4,166.9,182.3L166.9,182.3z M169.5,180.9c-0.1,0-0.2,0-0.2-0.1c-0.1-0.1,0-0.3,0.1-0.3l0,0l1.3-0.7
					c0.1-0.1,0.3,0,0.3,0.1l0,0c0.1,0.1,0,0.3-0.1,0.3L169.5,180.9L169.5,180.9z M172,179.4c-0.1,0-0.2,0-0.2-0.1
					c-0.1-0.1,0-0.3,0.1-0.3l0,0l1.3-0.7c0.1-0.1,0.3,0,0.3,0.1l0,0c0.1,0.1,0,0.3-0.1,0.3L172,179.4L172,179.4z M174.4,177.9
					c-0.1,0-0.2,0-0.2-0.1c-0.1-0.1,0-0.3,0.1-0.3l1.3-0.7c0.1-0.1,0.3,0,0.3,0.1l0,0c0.1,0.1,0,0.3-0.1,0.3l0,0L174.4,177.9
					C174.5,177.9,174.5,178,174.4,177.9L174.4,177.9z M177,176.5c-0.1,0-0.2-0.1-0.2-0.2c0-0.1,0-0.2,0.1-0.2l1.3-0.7
					c0.1-0.1,0.3,0,0.3,0.1c0.1,0.1,0,0.2-0.1,0.3l0,0L177,176.5C177.1,176.5,177,176.5,177,176.5L177,176.5z M179.5,175
					c-0.1,0-0.2,0-0.2-0.1c-0.1-0.1,0-0.3,0.1-0.3l0,0l1.3-0.7c0.1-0.1,0.3,0,0.3,0.1c0,0.1,0,0.3-0.1,0.3l0,0L179.5,175
					C179.6,175,179.6,175,179.5,175L179.5,175z M182.1,173.5c-0.1,0-0.2-0.1-0.2-0.1c-0.1-0.1,0-0.3,0.1-0.3l0,0l1.3-0.7
					c0.1-0.1,0.2,0,0.3,0.1l0,0c0.1,0.1,0,0.3-0.1,0.3l0,0L182.1,173.5C182.2,173.5,182.1,173.6,182.1,173.5L182.1,173.5z
					 M184.6,172.1c-0.1,0-0.2,0-0.2-0.1c-0.1-0.1,0-0.3,0.1-0.3l0,0l1.3-0.7c0.1-0.1,0.3,0,0.3,0.1c0.1,0.1,0,0.2-0.1,0.3l0,0
					L184.6,172.1C184.7,172.1,184.7,172.1,184.6,172.1L184.6,172.1z"/>
				<path class="st15" d="M187.1,170.6c-0.1,0-0.2,0-0.2-0.1c-0.1-0.1,0-0.3,0.1-0.3l0.6-0.4c0.1-0.1,0.2,0,0.3,0.1l0,0
					c0.1,0.1,0,0.3-0.1,0.3l0,0L187.1,170.6C187.2,170.6,187.2,170.6,187.1,170.6z"/>
				<path class="st15" d="M119.6,218.7c-0.1,0-0.2,0-0.2-0.1c-0.1-0.1,0-0.3,0.1-0.3l0,0l0.6-0.4c0.1-0.1,0.3,0,0.3,0.1
					c0.1,0.1,0,0.3-0.1,0.3L119.6,218.7L119.6,218.7z"/>
				<path class="st15" d="M121.5,217.6c-0.1,0-0.2,0-0.2-0.1c-0.1-0.1,0-0.2,0.1-0.3l0,0l1.3-0.7c0.1-0.1,0.3,0,0.3,0.1
					c0.1,0.1,0,0.3-0.1,0.3L121.5,217.6L121.5,217.6z M124,216.2c-0.1,0-0.2,0-0.2-0.1c-0.1-0.1,0-0.3,0.1-0.3l0,0l1.3-0.7
					c0.1-0.1,0.3,0,0.3,0.1l0,0c0.1,0.1,0,0.3-0.1,0.3L124,216.2L124,216.2z M126.6,214.7c-0.1,0-0.2,0-0.2-0.1
					c-0.1-0.1,0-0.3,0.1-0.3l0,0l1.3-0.7c0.1-0.1,0.3,0,0.3,0.1c0.1,0.1,0,0.3-0.1,0.3L126.6,214.7L126.6,214.7z M129.1,213.2
					c-0.1,0-0.2,0-0.2-0.1c-0.1-0.1,0-0.2,0.1-0.3l0,0l1.3-0.7c0.1-0.1,0.3,0,0.3,0.1l0,0c0.1,0.1,0,0.3-0.1,0.3l0,0L129.1,213.2
					C129.2,213.2,129.2,213.2,129.1,213.2z M131.7,211.8c-0.1,0-0.2,0-0.2-0.1c-0.1-0.1,0-0.3,0.1-0.3l0,0l1.3-0.7
					c0.1-0.1,0.3,0,0.3,0.1l0,0c0.1,0.1,0,0.2-0.1,0.3l0,0L131.7,211.8C131.7,211.8,131.7,211.8,131.7,211.8z M134.1,210.3
					c-0.1,0-0.2-0.1-0.2-0.2c0-0.1,0-0.2,0.1-0.2l1.3-0.7c0.1-0.1,0.3,0,0.3,0.1c0.1,0.1,0,0.3-0.1,0.3l0,0L134.1,210.3L134.1,210.3
					z M136.6,208.9c-0.1,0-0.2,0-0.2-0.1c-0.1-0.1,0-0.3,0.1-0.3l1.3-0.7c0.1-0.1,0.3,0,0.3,0.1c0.1,0.1,0,0.3-0.1,0.3l0,0
					L136.6,208.9C136.7,208.9,136.7,208.9,136.6,208.9L136.6,208.9z M139.2,207.5c-0.1,0-0.2,0-0.2-0.1c-0.1-0.1,0-0.3,0.1-0.3
					l1.3-0.7c0.1-0.1,0.3,0,0.3,0.1c0.1,0.1,0,0.3-0.1,0.3l0,0L139.2,207.5C139.3,207.5,139.2,207.5,139.2,207.5L139.2,207.5z
					 M141.7,206c-0.1,0-0.2,0-0.2-0.1c-0.1-0.1,0-0.3,0.1-0.3l1.3-0.7c0.1-0.1,0.3,0,0.3,0.1c0.1,0.1,0,0.3-0.1,0.3L141.7,206
					C141.8,206,141.8,206,141.7,206L141.7,206z M144.3,204.5c-0.1,0-0.2,0-0.2-0.1c-0.1-0.1,0-0.3,0.1-0.3l0,0l1.3-0.7
					c0.1-0.1,0.3,0,0.3,0.1l0,0c0.1,0.1,0,0.3-0.1,0.3L144.3,204.5C144.4,204.5,144.3,204.5,144.3,204.5z M146.8,203
					c-0.1,0-0.2,0-0.2-0.1c-0.1-0.1,0-0.2,0.1-0.3l0,0l1.3-0.7c0.1-0.1,0.3,0,0.3,0.1c0.1,0.1,0,0.3-0.1,0.3L146.8,203
					C146.9,203,146.9,203.1,146.8,203L146.8,203z M149.2,201.6c-0.1,0-0.2,0-0.2-0.1c-0.1-0.1,0-0.3,0.1-0.3l0,0l1.3-0.7
					c0.1-0.1,0.3-0.1,0.3,0c0.1,0.1,0.1,0.3,0,0.3c0,0,0,0-0.1,0L149.2,201.6C149.3,201.6,149.2,201.6,149.2,201.6z M151.7,200.1
					c-0.1,0-0.2,0-0.2-0.1c-0.1-0.1,0-0.3,0.1-0.3l0,0l1.3-0.7c0.1-0.1,0.3,0,0.3,0.1s0,0.3-0.1,0.3l0,0L151.7,200.1
					C151.8,200.1,151.8,200.1,151.7,200.1L151.7,200.1z M154.3,198.7c-0.1,0-0.2,0-0.2-0.1c-0.1-0.1,0-0.2,0.1-0.3l0,0l1.3-0.7
					c0.1-0.1,0.3,0,0.3,0.1l0,0c0.1,0.1,0,0.3-0.1,0.3l0,0L154.3,198.7C154.4,198.6,154.3,198.7,154.3,198.7L154.3,198.7z
					 M156.8,197.2c-0.1,0-0.2,0-0.2-0.1c-0.1-0.1,0-0.2,0.1-0.3l0,0l1.3-0.7c0.1-0.1,0.3,0,0.3,0.1c0.1,0.1,0,0.2-0.1,0.3l0,0
					L156.8,197.2C156.9,197.2,156.9,197.2,156.8,197.2L156.8,197.2z M159.4,195.8c-0.1,0-0.2-0.1-0.2-0.2c0-0.1,0-0.2,0.1-0.2
					l1.3-0.7c0.1-0.1,0.3,0,0.3,0.1c0,0.1,0,0.3-0.1,0.3L159.4,195.8C159.5,195.8,159.4,195.8,159.4,195.8L159.4,195.8z
					 M161.8,194.4c-0.1,0-0.2-0.1-0.2-0.3c0-0.1,0-0.2,0.1-0.2l1.3-0.7c0.1-0.1,0.2,0,0.3,0.1l0,0c0.1,0.1,0,0.3-0.1,0.3l0,0
					L161.8,194.4C161.9,194.4,161.9,194.4,161.8,194.4L161.8,194.4z M164.3,192.9c-0.1,0-0.2,0-0.2-0.1c-0.1-0.1,0-0.3,0.1-0.3
					l1.3-0.7c0.1-0.1,0.3,0,0.3,0.1c0.1,0.1,0,0.3-0.1,0.3l0,0L164.3,192.9C164.4,192.9,164.4,192.9,164.3,192.9L164.3,192.9z
					 M166.9,191.4c-0.1,0-0.2,0-0.2-0.1c-0.1-0.1,0-0.3,0.1-0.3l1.3-0.7c0.1-0.1,0.3,0,0.3,0.1c0.1,0.1,0,0.3-0.1,0.3L166.9,191.4
					C167,191.4,167,191.4,166.9,191.4L166.9,191.4z M169.4,190c-0.1,0-0.2,0-0.2-0.1c-0.1-0.1,0-0.3,0.1-0.3l0,0l1.3-0.7
					c0.1-0.1,0.3,0,0.3,0.1l0,0c0.1,0.1,0,0.3-0.1,0.3L169.4,190L169.4,190z M172,188.5c-0.1,0-0.2,0-0.2-0.1
					c-0.1-0.1,0-0.2,0.1-0.3l0,0l1.3-0.7c0.1-0.1,0.3,0,0.3,0.1l0,0c0.1,0.1,0,0.3-0.1,0.3L172,188.5L172,188.5L172,188.5z
					 M174.4,187c-0.1,0-0.2,0-0.2-0.1c-0.1-0.1,0-0.2,0.1-0.3l0,0l1.3-0.7c0.1-0.1,0.3-0.1,0.3,0c0.1,0.1,0.1,0.3,0,0.3
					c0,0,0,0-0.1,0L174.4,187L174.4,187z M177,185.6c-0.1,0-0.2,0-0.2-0.1c-0.1-0.1,0-0.3,0.1-0.3l0,0l1.3-0.7
					c0.1-0.1,0.3,0,0.3,0.1s0,0.3-0.1,0.3L177,185.6L177,185.6z M179.5,184.1c-0.1,0-0.2,0-0.2-0.1c-0.1-0.1,0-0.3,0.1-0.3l1.3-0.7
					c0.1-0.1,0.3,0,0.3,0.1c0,0.1,0,0.3-0.1,0.3L179.5,184.1C179.6,184.1,179.6,184.1,179.5,184.1L179.5,184.1z M182.1,182.7
					c-0.1,0-0.2,0-0.2-0.1c-0.1-0.1,0-0.2,0.1-0.3l0,0l1.3-0.7c0.1-0.1,0.3,0,0.3,0.1c0.1,0.1,0,0.2-0.1,0.3l0,0L182.1,182.7
					C182.2,182.6,182.1,182.6,182.1,182.7L182.1,182.7z M184.6,181.3c-0.1,0-0.2-0.1-0.2-0.2c0-0.1,0-0.2,0.1-0.2l1.3-0.7
					c0.1-0.1,0.3,0,0.3,0.1c0,0.1,0,0.3-0.1,0.3L184.6,181.3C184.7,181.3,184.7,181.3,184.6,181.3L184.6,181.3z"/>
				<path class="st15" d="M187.1,179.8c-0.1,0-0.2-0.1-0.2-0.3c0-0.1,0-0.2,0.1-0.2l0.6-0.4c0.1-0.1,0.2,0,0.3,0.1l0,0
					c0.1,0.1,0,0.3-0.1,0.3l0,0L187.1,179.8C187.2,179.8,187.2,179.8,187.1,179.8z"/>
				<path class="st1" d="M112.1,232.4c-0.2,0-0.3-0.1-0.4-0.2c-0.1-0.2-0.1-0.5,0.2-0.7l0,0l75.7-43.7c0.2-0.1,0.5,0,0.7,0.2
					c0.1,0.2,0.1,0.5-0.2,0.7l0,0l-75.7,43.7C112.3,232.4,112.2,232.4,112.1,232.4z"/>
				<g class="st22">
					<path d="M112.1,232.4c-0.2,0-0.3-0.1-0.4-0.2c-0.1-0.2-0.1-0.5,0.2-0.7l0,0l75.7-43.7c0.2-0.1,0.5,0,0.7,0.2
						c0.1,0.2,0.1,0.5-0.2,0.7l0,0l-75.7,43.7C112.3,232.4,112.2,232.4,112.1,232.4z"/>
				</g>
				<path class="st7" d="M179.4,200.9c0-0.1,0.1-0.1,0.1-0.2s0-0.1,0-0.2c0-0.1,0-0.1,0-0.2c0,0-0.1,0-0.2,0c-0.1,0-0.1,0.1-0.2,0.2
					c0,0.1-0.1,0.2-0.1,0.3v0.1l0,0l-0.2,0.1l0,0c0,0,0,0,0-0.1s0-0.2,0.1-0.3c0-0.1,0.1-0.2,0.1-0.3c0.1-0.1,0.1-0.2,0.2-0.3
					c0.1-0.1,0.1-0.1,0.2-0.2c0.1,0,0.1-0.1,0.2-0.1c0.1,0,0.1,0,0.2,0.1c0,0.1,0.1,0.1,0.1,0.2c0,0.1,0,0.2,0,0.3
					c0,0.1,0,0.1,0,0.2c0,0.1,0,0.1,0,0.2c0,0.1,0,0.1-0.1,0.2l-0.1,0.2l-0.4,0.8l0.6-0.4l0,0c0,0,0,0,0,0.1v0.2c0,0,0,0,0,0.1l0,0
					l-1,0.6 M178.9,202.5L178.9,202.5v-0.3v-0.1V202V202.5z"/>
				<path class="st7" d="M181.2,199.7v0.6c0,0.1,0,0.3,0,0.4c0,0.1-0.1,0.2-0.1,0.4c-0.1,0.1-0.1,0.2-0.2,0.3
					c-0.1,0.1-0.2,0.2-0.3,0.2c-0.1,0.1-0.2,0.1-0.3,0.1s-0.1,0-0.2-0.1c0-0.1-0.1-0.1-0.1-0.2c0-0.1,0-0.2,0-0.3c0-0.1,0-0.2,0-0.3
					s0-0.2,0-0.3s0-0.3,0-0.4c0-0.1,0.1-0.2,0.1-0.4c0-0.1,0.1-0.2,0.2-0.3c0.1-0.1,0.2-0.2,0.3-0.2c0.1-0.1,0.2-0.1,0.3-0.1
					s0.1,0,0.2,0.1c0.1,0.1,0.1,0.1,0.1,0.2C181.2,199.4,181.2,199.6,181.2,199.7z M180.3,200.8c0,0.1,0,0.2,0.1,0.3
					c0,0.1,0.1,0.1,0.2,0c0.1-0.1,0.2-0.1,0.2-0.3c0-0.1,0.1-0.3,0.1-0.4c0-0.1,0-0.2,0-0.3s0-0.2,0-0.3c0-0.1,0-0.2-0.1-0.3
					c0-0.1-0.1-0.1-0.2,0s-0.2,0.2-0.2,0.3c-0.1,0.1-0.1,0.3-0.1,0.4V200.8L180.3,200.8z"/>
				<path class="st7" d="M182.1,199.3c0-0.1,0.1-0.1,0.1-0.2c0-0.1,0-0.1,0-0.2c0-0.1,0-0.1-0.1-0.2c0,0-0.1,0-0.2,0
					s-0.1,0.1-0.2,0.2c0,0.1-0.1,0.2-0.1,0.3v0.1l0,0l-0.2,0.1l0,0l0,0c0-0.1,0-0.2,0.1-0.3c0-0.1,0.1-0.2,0.1-0.3
					c0.1-0.1,0.1-0.2,0.2-0.3l0.2-0.2c0.1,0,0.2-0.1,0.2-0.1c0.1,0,0.1,0,0.2,0.1c0.1,0,0.1,0.1,0.1,0.2s0,0.2,0,0.3v0.2v0.2
					l-0.1,0.2c0,0.1-0.1,0.2-0.1,0.2l-0.4,0.8l0.6-0.4l0,0c0,0,0,0,0,0.1v0.2c0,0,0,0,0,0.1l0,0l-1,0.6l0,0c0,0,0,0,0-0.1v-0.2v-0.1
					v-0.1L182.1,199.3z"/>
				<path class="st7" d="M184,198.1L184,198.1v0.4c0,0.1,0,0.1,0,0.1c0,0.1,0,0.3,0,0.4c0,0.1-0.1,0.2-0.1,0.4
					c0,0.1-0.1,0.2-0.2,0.3c-0.1,0.1-0.2,0.2-0.3,0.2c-0.1,0.1-0.2,0.1-0.3,0.1c-0.1,0-0.1,0-0.2-0.1c-0.1-0.1-0.1-0.1-0.1-0.2
					c0-0.1,0-0.2,0-0.3v-0.6c0-0.1,0-0.3,0-0.4c0-0.1,0-0.2,0.1-0.4c0-0.1,0.1-0.2,0.2-0.3c0.1-0.1,0.2-0.2,0.3-0.2
					c0.1-0.1,0.2-0.1,0.3-0.1s0.1,0,0.2,0.1s0.1,0.1,0.1,0.2C184,197.8,184,198,184,198.1z M183.1,199.2c0,0.1,0,0.2,0.1,0.3
					c0,0.1,0.1,0.1,0.2,0c0.1-0.1,0.2-0.1,0.2-0.3c0-0.1,0.1-0.3,0.1-0.4v-0.6c0-0.1,0-0.2-0.1-0.3c0-0.1-0.1-0.1-0.2,0
					c-0.1,0.1-0.2,0.1-0.2,0.3c0,0.1-0.1,0.3-0.1,0.4V199.2L183.1,199.2z"/>
				<path class="st7" d="M165.8,208.8c0-0.1,0.1-0.1,0.1-0.2c0-0.1,0-0.1,0-0.2c0-0.1,0-0.1-0.1-0.2c0,0-0.1,0-0.2,0
					s-0.1,0.1-0.2,0.2c0,0.1-0.1,0.2-0.1,0.3v0.1l0,0l-0.2,0.1l0,0l0,0c0-0.1,0-0.2,0.1-0.3c0-0.1,0.1-0.2,0.1-0.3
					c0.1-0.1,0.1-0.2,0.2-0.3s0.1-0.1,0.2-0.2c0.1,0,0.1-0.1,0.2-0.1s0.1,0,0.2,0.1c0,0.1,0.1,0.1,0.1,0.2c0,0.1,0,0.2,0,0.3
					c0,0.1,0,0.1,0,0.2c0,0.1,0,0.1,0,0.2l-0.1,0.2c0,0.1-0.1,0.2-0.1,0.2l-0.4,0.8l0.6-0.4l0,0c0,0,0,0,0,0.1v0.2c0,0,0,0,0,0.1
					l0,0l-1,0.6l0,0c0,0,0,0,0-0.1v-0.2v-0.1V210L165.8,208.8z"/>
				<path class="st7" d="M167.6,207.6v0.6c0,0.1,0,0.3,0,0.4s-0.1,0.2-0.1,0.4c-0.1,0.1-0.1,0.2-0.2,0.3s-0.2,0.2-0.3,0.2
					c-0.1,0.1-0.2,0.1-0.3,0.1s-0.1,0-0.2-0.1c-0.1-0.1-0.1-0.1-0.1-0.2c0-0.1,0-0.2,0-0.3v-0.6c0-0.1,0-0.3,0-0.4
					c0-0.1,0.1-0.2,0.1-0.4c0-0.1,0.1-0.2,0.2-0.3c0.1-0.1,0.2-0.2,0.3-0.2c0.1-0.1,0.2-0.1,0.3-0.1c0.1,0,0.1,0,0.2,0.1
					c0,0.1,0.1,0.1,0.1,0.2C167.6,207.4,167.6,207.5,167.6,207.6z M166.7,208.7c0,0.1,0,0.2,0.1,0.3c0.1,0.1,0.1,0.1,0.2,0
					c0.1-0.1,0.2-0.2,0.2-0.3c0-0.1,0.1-0.3,0.1-0.4s0-0.2,0-0.3s0-0.2,0-0.3c0-0.1,0-0.2-0.1-0.3c0-0.1-0.1-0.1-0.2,0
					c-0.1,0.1-0.2,0.2-0.2,0.3c0,0.1-0.1,0.3-0.1,0.4c0,0.1,0,0.2,0,0.3S166.7,208.6,166.7,208.7L166.7,208.7z"/>
				<path class="st7" d="M167.8,207.4L167.8,207.4C167.8,207.3,167.8,207.3,167.8,207.4l0.5-1v-0.1h0.1l0.2-0.1l0,0c0,0,0,0,0,0.1
					v2.2v0.1v0.1l-0.2,0.1l0,0c0,0,0,0,0-0.1v-1.6l-0.3,0.6l0,0l0,0L167.8,207.4z"/>
				<path class="st7" d="M169.1,208.1L169.1,208.1l0.3-0.9c-0.1,0-0.1,0.1-0.2,0.1c-0.1,0-0.1,0-0.2-0.1c-0.1,0-0.1-0.1-0.1-0.2
					s-0.1-0.2-0.1-0.3s0-0.2,0.1-0.4c0-0.1,0.1-0.2,0.1-0.3c0.1-0.1,0.1-0.2,0.2-0.3c0.1-0.1,0.1-0.1,0.2-0.2c0.1,0,0.1-0.1,0.2-0.1
					c0.1,0,0.1,0,0.2,0.1c0.1,0,0.1,0.1,0.1,0.2c0,0.1,0,0.2,0.1,0.3c0,0.1,0,0.1,0,0.2v0.2c0,0.1,0,0.1-0.1,0.2l-0.1,0.2l-0.4,1.1
					l0,0c0,0,0,0-0.1,0.1L169.1,208.1L169.1,208.1C169.2,208.1,169.1,208.1,169.1,208.1z M169.1,206.6c0,0.1,0,0.2,0.1,0.2
					s0.1,0,0.2,0c0.1-0.1,0.2-0.1,0.2-0.2c0.1-0.1,0.1-0.2,0.1-0.3s0-0.2-0.1-0.2s-0.1,0-0.2,0s-0.2,0.1-0.2,0.2
					C169.1,206.4,169.1,206.5,169.1,206.6z"/>
				<path class="st7" d="M151.9,216.8c0-0.1,0.1-0.1,0.1-0.2s0-0.1,0-0.2c0-0.1,0-0.1-0.1-0.2c0,0-0.1,0-0.2,0
					c-0.1,0-0.1,0.1-0.2,0.2c0,0.1-0.1,0.2-0.1,0.3v0.1l0,0l-0.2,0.1l0,0l0,0c0-0.1,0-0.2,0-0.3c0-0.1,0.1-0.2,0.1-0.3
					s0.1-0.2,0.2-0.3c0.1-0.1,0.1-0.1,0.2-0.2c0.1,0,0.2-0.1,0.2-0.1c0.1,0,0.1,0,0.2,0.1c0.1,0,0.1,0.1,0.1,0.2s0,0.2,0,0.3
					s0,0.1,0,0.2s0,0.1,0,0.2c0,0.1,0,0.1-0.1,0.2l-0.1,0.2l-0.4,0.8l0.6-0.4c0,0,0,0,0.1,0c0.1,0,0,0,0,0v0.2c0,0,0,0,0,0.1
					c0,0,0,0-0.1,0.1l-1,0.6l0,0c0,0,0,0,0-0.1v-0.2v-0.1V218L151.9,216.8z"/>
				<path class="st7" d="M153.7,215.5v0.6c0,0.1,0,0.3,0,0.4s-0.1,0.2-0.1,0.4c0,0.1-0.1,0.2-0.2,0.3c-0.1,0.1-0.2,0.2-0.3,0.2
					c-0.1,0.1-0.2,0.1-0.3,0.1s-0.1,0-0.2-0.1c-0.1-0.1-0.1-0.1-0.1-0.2c0-0.1,0-0.2,0-0.3c0-0.1,0-0.2,0-0.3c0-0.1,0-0.2,0-0.3
					s0-0.3,0-0.4c0-0.1,0-0.2,0.1-0.4c0-0.1,0.1-0.2,0.2-0.3c0.1-0.1,0.2-0.2,0.3-0.2c0.1-0.1,0.2-0.1,0.3-0.1c0.1,0,0.1,0,0.2,0.1
					c0.1,0.1,0.1,0.1,0.1,0.2C153.7,215.3,153.7,215.4,153.7,215.5z M152.8,216.6c0,0.1,0,0.2,0.1,0.3c0,0.1,0.1,0.1,0.2,0
					c0.1,0,0.2-0.1,0.2-0.3c0-0.1,0.1-0.3,0.1-0.4v-0.6c0-0.1,0-0.2-0.1-0.3c0-0.1-0.1-0.1-0.2,0c-0.1,0.1-0.2,0.1-0.2,0.3
					c0,0.1-0.1,0.3-0.1,0.4V216.6L152.8,216.6z"/>
				<path class="st7" d="M153.9,215.3L153.9,215.3C153.9,215.2,153.9,215.2,153.9,215.3l0.5-0.9v-0.1l0,0l0.2-0.1l0,0c0,0,0,0,0,0.1
					v2.2v0.1l0,0l-0.2,0.1l0,0c0,0,0,0,0-0.1v-1.7l-0.3,0.6l0,0l0,0L153.9,215.3z"/>
				<path class="st7" d="M155,215.6c0-0.1,0-0.2,0-0.3c0-0.1,0.1-0.2,0.1-0.3c-0.1-0.1-0.1-0.2-0.1-0.4c0-0.1,0-0.2,0-0.3
					s0.1-0.2,0.1-0.3c0-0.1,0.1-0.2,0.2-0.2c0.1-0.1,0.1-0.1,0.2-0.2c0.1,0,0.1-0.1,0.2-0.1c0.1,0,0.1,0,0.2,0
					c0.1,0,0.1,0.1,0.1,0.1c0,0.1,0,0.2,0,0.3c0,0.1,0,0.2,0,0.3s-0.1,0.2-0.1,0.3c0.1,0,0.1,0.1,0.1,0.1c0,0.1,0.1,0.2,0.1,0.3
					c0,0.1,0,0.2,0,0.3c0,0.1-0.1,0.2-0.1,0.3s-0.1,0.2-0.2,0.3c-0.1,0.1-0.2,0.1-0.3,0.2c-0.1,0-0.2,0.1-0.3,0.1
					c-0.1,0-0.1,0-0.2,0c-0.1,0-0.1-0.1-0.1-0.2C154.9,215.8,154.9,215.7,155,215.6z M155.2,215.5L155.2,215.5c0,0.1,0,0.1,0.1,0.2
					h0.1h0.1l0.1-0.1l0.1-0.1l0.1-0.1v-0.1v-0.1c0,0,0,0-0.1,0h-0.1l-0.1,0.1l-0.1,0.1L155.2,215.5
					C155.3,215.3,155.3,215.4,155.2,215.5C155.2,215.4,155.2,215.4,155.2,215.5L155.2,215.5z M155.3,214.5L155.3,214.5
					c0,0.1,0,0.1,0.1,0.2h0.1h0.1l0.1-0.1c0.1-0.1,0.1-0.1,0.1-0.2v-0.1v-0.1c0,0,0,0-0.1-0.1h-0.1h-0.1c0,0-0.1,0-0.1,0.1l-0.1,0.1
					V214.5C155.3,214.4,155.3,214.4,155.3,214.5L155.3,214.5z"/>
				<path class="st7" d="M138.2,224.6c0-0.1,0.1-0.1,0.1-0.2s0-0.1,0-0.2c0-0.1,0-0.1,0-0.2c0,0-0.1,0-0.2,0c-0.1,0-0.1,0.1-0.2,0.2
					c0,0.1-0.1,0.2-0.1,0.3v0.1l0,0l-0.2,0.1l0,0c0,0,0,0,0-0.1s0-0.2,0.1-0.3c0-0.1,0.1-0.2,0.1-0.3c0-0.1,0.1-0.2,0.2-0.3
					s0.1-0.1,0.2-0.2c0.1-0.1,0.1-0.1,0.2-0.1s0.1,0,0.2,0.1c0,0.1,0.1,0.1,0.1,0.2c0,0.1,0,0.2,0,0.2c0,0.1,0,0.1,0,0.2
					c0,0.1,0,0.1,0,0.2s0,0.1-0.1,0.2c0,0.1-0.1,0.2-0.1,0.3l-0.4,0.8l0.6-0.4l0,0l0,0v0.2v0.1c0,0,0,0,0,0.1l-1,0.6l0,0
					c0,0,0,0,0-0.1v-0.2v-0.1v-0.1L138.2,224.6z"/>
				<path class="st7" d="M140,223.5v0.6c0,0.1,0,0.3,0,0.4c0,0.1-0.1,0.2-0.1,0.4c0,0.1-0.1,0.2-0.2,0.3s-0.2,0.2-0.3,0.2
					c-0.1,0.1-0.2,0.1-0.3,0.1c-0.1,0-0.1,0-0.2-0.1c0-0.1-0.1-0.1-0.1-0.2c0-0.1,0-0.2,0-0.3c0-0.1,0-0.2,0-0.3s0-0.2,0-0.3
					s0-0.3,0-0.4c0-0.1,0.1-0.2,0.1-0.4c0-0.1,0.1-0.2,0.2-0.3c0.1-0.1,0.2-0.2,0.3-0.2c0.1-0.1,0.2-0.1,0.3-0.1
					c0.1,0,0.1,0,0.2,0.1c0.1,0.1,0.1,0.1,0.1,0.2C140,223.3,140,223.4,140,223.5z M139.1,224.5c0,0.1,0,0.2,0.1,0.3
					c0,0.1,0.1,0.1,0.2,0c0.1-0.1,0.2-0.2,0.2-0.3s0.1-0.3,0.1-0.4c0-0.2,0-0.4,0-0.6c0-0.1,0-0.2-0.1-0.3c0-0.1-0.1-0.1-0.2,0
					c-0.1,0.1-0.2,0.2-0.2,0.3c0,0.1-0.1,0.3-0.1,0.4V224.5z"/>
				<path class="st7" d="M140.2,223.3L140.2,223.3C140.2,223.2,140.2,223.2,140.2,223.3l0.5-1v-0.1l0,0l0.2-0.1l0,0c0,0,0,0,0,0.1
					v2.2c0,0,0,0,0,0.1l0,0l-0.2,0.1l0,0l0,0v-1.7l-0.3,0.6l0,0l0,0L140.2,223.3z"/>
				<path class="st7" d="M142.2,221.4L142.2,221.4L142.2,221.4v0.3c0,0,0,0,0,0.1v0.1l-0.5,2.1c0,0,0,0,0,0.1l0,0l-0.2,0.1l0,0
					c0,0,0,0,0-0.1l0,0l0.5-2.1l-0.7,0.4l0,0l0,0v-0.2v-0.1c0,0,0,0,0-0.1L142.2,221.4z"/>
				<path class="st7" d="M124.3,232.7c0-0.1,0.1-0.1,0.1-0.2c0-0.1,0-0.1,0-0.2c0-0.1,0-0.1,0-0.2c0,0-0.1,0-0.2,0
					c-0.1,0-0.1,0.1-0.2,0.2c0,0.1-0.1,0.2-0.1,0.3v0.1l0,0l-0.2,0.1l0,0l0,0c0-0.1,0-0.2,0-0.3s0.1-0.2,0.1-0.3
					c0.1-0.1,0.1-0.2,0.2-0.3c0.1-0.1,0.1-0.1,0.2-0.2c0.1,0,0.2-0.1,0.2-0.1c0.1,0,0.1,0,0.2,0.1c0,0.1,0.1,0.1,0.1,0.2
					s0,0.2,0,0.3s0,0.1,0,0.2v0.2l-0.1,0.2l-0.1,0.2l-0.4,0.8l0.6-0.4l0,0l0,0v0.2c0,0,0,0,0,0.1c0,0,0,0,0,0.1l-1,0.6l0,0
					c0,0,0,0,0-0.1v-0.2V234v-0.1L124.3,232.7z"/>
				<path class="st7" d="M126.1,231.5L126.1,231.5v0.4v0.1c0,0.1,0,0.3,0,0.4c0,0.1-0.1,0.2-0.1,0.4c-0.1,0.1-0.1,0.2-0.2,0.3
					c-0.1,0.1-0.2,0.2-0.3,0.2c-0.1,0.1-0.2,0.1-0.3,0.1s-0.1,0-0.2-0.1c-0.1-0.1-0.1-0.1-0.1-0.2c0-0.1,0-0.2,0-0.3v-0.6
					c0-0.1,0-0.3,0-0.4c0-0.1,0-0.2,0.1-0.4c0-0.1,0.1-0.2,0.2-0.3c0.1-0.1,0.2-0.2,0.3-0.2c0.1-0.1,0.2-0.1,0.3-0.1
					c0.1,0,0.1,0,0.2,0.1c0.1,0.1,0.1,0.1,0.1,0.2C126.1,231.3,126.1,231.4,126.1,231.5z M125.2,232.6c0,0.1,0,0.2,0.1,0.3
					c0,0.1,0.1,0.1,0.2,0c0.1-0.1,0.2-0.1,0.2-0.3c0-0.1,0.1-0.3,0.1-0.4v-0.6c0-0.1,0-0.2-0.1-0.3c0-0.1-0.1-0.1-0.2,0
					c-0.1,0.1-0.2,0.1-0.2,0.3c0,0.1-0.1,0.3-0.1,0.4c0,0.1,0,0.2,0,0.3C125.2,232.4,125.2,232.5,125.2,232.6L125.2,232.6z"/>
				<path class="st7" d="M126.3,231.3L126.3,231.3C126.3,231.2,126.3,231.2,126.3,231.3l0.5-0.9v-0.1l0,0l0.2-0.1l0,0c0,0,0,0,0,0.1
					v2.1v0.1l0,0l-0.2,0.1l0,0c0,0,0,0,0-0.1v-1.7l-0.3,0.6l0,0l0,0L126.3,231.3z"/>
				<path class="st7" d="M127.3,231.5c0-0.1,0-0.2,0-0.4c0-0.1,0.1-0.2,0.1-0.3l0.4-1.1c0,0,0,0,0-0.1l0,0l0.2-0.1l0,0
					c0,0,0,0,0,0.1l0,0l-0.3,0.8c0.1,0,0.2-0.1,0.2-0.1c0.1,0,0.1,0,0.2,0.1c0.1,0.1,0.1,0.1,0.1,0.2c0,0.1,0,0.2,0,0.3s0,0.2,0,0.4
					c0,0.1-0.1,0.2-0.1,0.3c-0.1,0.1-0.1,0.2-0.2,0.3c-0.1,0.1-0.1,0.1-0.2,0.2c-0.1,0-0.2,0.1-0.2,0.1c-0.1,0-0.1,0-0.2-0.1
					c-0.1-0.1-0.1-0.1-0.1-0.2C127.2,231.7,127.3,231.6,127.3,231.5z M128.2,231c0-0.1,0-0.2-0.1-0.2c0-0.1-0.1,0-0.2,0
					c-0.1,0.1-0.2,0.1-0.2,0.2c0,0.1-0.1,0.2-0.1,0.3s0,0.2,0.1,0.3c0,0.1,0.1,0.1,0.2,0c0.1-0.1,0.2-0.1,0.2-0.2
					C128.2,231.2,128.2,231.1,128.2,231z"/>
				<path class="st1" d="M119.6,228.1c-0.1,0-0.1,0-0.2,0c-0.2-0.1-0.3-0.4-0.2-0.6l0,0l6.4-12.9c0-0.1,0.1-0.1,0.2-0.2l7.2-5.4
					l6.5-11.5l6.3-7.2l7.6-9.8c0.1-0.1,0.2-0.2,0.3-0.2s0.3,0,0.4,0.1l6.2,5.4l7,0.2l6.5-11.8l7.2-8.6c0.2-0.2,0.5-0.2,0.7-0.1
					c0.2,0.2,0.2,0.5,0,0.7l0,0l-7.1,8.5l-6.6,12c-0.1,0.2-0.3,0.3-0.4,0.3l-7.5-0.2c-0.1,0-0.2,0-0.3-0.1l-6-5.2l-7.3,9.5l-6.2,7.2
					l-6.5,11.5c0,0.1-0.1,0.1-0.1,0.2l-7.1,5.3l-6.4,12.8C119.9,227.9,119.8,228.1,119.6,228.1z"/>
				<path class="st7" d="M119.6,228.1c-0.1,0-0.2,0-0.3-0.1c-0.2-0.2-0.3-0.5-0.1-0.7l6.4-8.3c0.1-0.1,0.1-0.1,0.2-0.2l6.9-2.3
					l6.7-10c0.1-0.2,0.3-0.2,0.5-0.2l6.1,0.9l7.3-1.9l13.8-33c0.1-0.2,0.2-0.3,0.4-0.3c0.2,0,0.3,0.1,0.4,0.2l7.1,9.3l6.9,0.4
					c0.3,0,0.5,0.2,0.5,0.5s-0.2,0.5-0.5,0.5l0,0l-7.1-0.4c-0.1,0-0.3-0.1-0.4-0.2l-6.9-8.8L154.2,206c-0.1,0.1-0.2,0.3-0.3,0.3
					l-7.6,1.9c-0.1,0-0.1,0-0.2,0l-5.9-0.9l-6.6,9.8c-0.1,0.1-0.2,0.2-0.3,0.2l-6.9,2.3l-6.4,8.2C119.9,228,119.8,228.1,119.6,228.1
					z"/>
				<path class="st1" d="M192.3,150.5l-1.5,0.9c-0.6,0.3-1,0-1-0.8l0,0c0-0.8,0.4-1.5,1-1.9l1.5-0.8c0.6-0.3,1,0,1,0.8l0,0
					C193.3,149.3,193,150,192.3,150.5z"/>
				<path class="st15" d="M192.3,159.6l-1.5,0.9c-0.6,0.3-1,0-1-0.8l0,0c0-0.8,0.4-1.5,1-1.9l1.5-0.8c0.6-0.3,1,0,1,0.8l0,0
					C193.3,158.4,193,159.1,192.3,159.6z"/>
				<path class="st7" d="M112.4,194l4.6-2.7c0.5-0.3,0.9,0,0.9,0.7l0,0c0,0.7-0.3,1.3-0.9,1.7l-4.6,2.7c-0.5,0.3-0.9,0-0.9-0.7l0,0
					C111.5,195,111.8,194.4,112.4,194z"/>
				<path class="st7" d="M196,145.7l6.8-3.9c0.5-0.3,0.9,0,0.9,0.7l0,0c0,0.7-0.3,1.3-0.9,1.7l-6.8,3.9c-0.5,0.3-0.9,0-0.9-0.7l0,0
					C195.2,146.7,195.5,146.1,196,145.7z"/>
				<path class="st7" d="M196,155l6.8-3.9c0.5-0.3,0.9,0,0.9,0.7l0,0c0,0.7-0.3,1.3-0.9,1.7l-6.8,3.9c-0.5,0.3-0.9,0-0.9-0.7l0,0
					C195.2,155.9,195.5,155.3,196,155z"/>
				<path class="st7" d="M112.4,212.5l4.6-2.7c0.5-0.3,0.9,0,0.9,0.7l0,0c0,0.7-0.3,1.3-0.9,1.7l-4.6,2.6c-0.5,0.3-0.9,0-0.9-0.7
					l0,0C111.5,213.5,111.8,212.9,112.4,212.5z"/>
				<path class="st7" d="M112.4,221.9l4.6-2.7c0.5-0.3,0.9,0,0.9,0.7l0,0c0,0.7-0.3,1.3-0.9,1.7l-4.6,2.7c-0.5,0.3-0.9,0-0.9-0.7
					l0,0C111.5,222.9,111.8,222.3,112.4,221.9z"/>
				<path class="st7" d="M112.4,203.3l4.6-2.7c0.5-0.3,0.9,0,0.9,0.7l0,0c0,0.7-0.3,1.3-0.9,1.7l-4.6,2.7c-0.5,0.3-0.9,0-0.9-0.7
					l0,0C111.5,204.3,111.8,203.7,112.4,203.3z"/>
				<path class="st7" d="M118.4,162c0.5-0.3,1-0.5,1.5-0.5c0.4,0,0.8,0.1,1.1,0.4c0.3,0.3,0.5,0.7,0.7,1.2c0.2,0.6,0.3,1.3,0.3,1.9
					c0,0.9,0,1.8,0,2.7c0,0.7-0.1,1.5-0.3,2.2c-0.1,0.7-0.4,1.3-0.7,1.9s-0.6,1.1-1,1.6s-0.9,0.9-1.5,1.2l-3,1.7
					c-0.1,0.1-0.2,0.1-0.2,0c-0.1-0.1-0.1-0.2-0.1-0.3v-11.6c0-0.1,0-0.3,0.1-0.4c0-0.1,0.1-0.2,0.2-0.3L118.4,162z M120.2,165.9
					c0-0.3-0.1-0.7-0.2-1c-0.1-0.2-0.2-0.5-0.4-0.6c-0.2-0.2-0.4-0.2-0.6-0.2c-0.3,0-0.6,0.1-0.9,0.3l-1.6,0.9v8l1.6-0.9
					c0.3-0.2,0.6-0.4,0.8-0.7c0.2-0.3,0.4-0.6,0.6-0.9c0.2-0.3,0.3-0.7,0.4-1.1c0.1-0.4,0.1-0.8,0.2-1.2
					C120.2,167.6,120.2,166.8,120.2,165.9z"/>
				<path class="st7" d="M127.3,156.8c0.1-0.1,0.2-0.1,0.3,0c0.1,0.1,0.1,0.2,0.2,0.4l2.9,9.6v0.1c0,0.1,0,0.3-0.1,0.4
					c0,0.1-0.1,0.2-0.2,0.3l-0.8,0.5c-0.2,0.1-0.3,0.1-0.3,0c-0.1-0.1-0.1-0.1-0.1-0.2l-0.5-1.7l-3.7,2.1l-0.5,2.3
					c0,0.1-0.1,0.3-0.1,0.4c-0.1,0.1-0.2,0.3-0.3,0.3l-0.8,0.5c-0.1,0.1-0.2,0.1-0.2,0c-0.1-0.1-0.1-0.2-0.1-0.3v-0.1l2.9-13
					c0-0.2,0.1-0.4,0.2-0.6c0.1-0.1,0.2-0.2,0.3-0.3L127.3,156.8z M127.9,164.4l-1.3-4.4l-1.2,5.8L127.9,164.4z"/>
				<path class="st7" d="M136.5,151.5c0.1-0.1,0.2-0.1,0.2,0c0.1,0.1,0.1,0.2,0.1,0.3v1.3c0,0.1,0,0.3-0.1,0.4
					c0,0.1-0.1,0.2-0.2,0.3l-2.1,1.2v9.8c0,0.1,0,0.3-0.1,0.4c0,0.1-0.1,0.2-0.2,0.3l-1,0.6c-0.1,0.1-0.2,0.1-0.2,0
					c-0.1-0.1-0.1-0.2-0.1-0.3v-9.9l-2.1,1.2c-0.1,0.1-0.2,0.1-0.2,0c-0.1-0.1-0.1-0.2-0.1-0.3v-1.3c0-0.1,0-0.3,0.1-0.4
					c0-0.1,0.1-0.2,0.2-0.3L136.5,151.5z"/>
				<path class="st7" d="M141.3,148.8c0.1-0.1,0.2-0.1,0.3,0c0.1,0.1,0.1,0.2,0.2,0.4l2.9,9.6v0.1c0,0.1,0,0.3-0.1,0.4
					c0,0.1-0.1,0.2-0.2,0.3l-0.8,0.5c-0.2,0.1-0.3,0.1-0.3,0c-0.1-0.1-0.1-0.1-0.1-0.2l-0.5-1.7l-3.7,2.1l-0.5,2.3
					c0,0.1-0.1,0.3-0.1,0.4c-0.1,0.1-0.2,0.3-0.3,0.3l-0.8,0.5c-0.1,0.1-0.2,0.1-0.2,0c-0.1-0.1-0.1-0.2-0.1-0.3v-0.1l2.9-13
					c0-0.2,0.1-0.4,0.2-0.6c0.1-0.1,0.2-0.2,0.3-0.3L141.3,148.8z M142,156.2l-1.3-4.4l-1.3,5.9L142,156.2z"/>
				<path class="st7" d="M153.7,141.5c0.1-0.1,0.2-0.1,0.2,0c0.1,0.1,0.1,0.2,0.1,0.3v1.3c0,0.1,0,0.3-0.1,0.4
					c0,0.1-0.1,0.2-0.2,0.3l-2.1,1.2v9.8c0,0.1,0,0.3-0.1,0.4c0,0.1-0.1,0.2-0.2,0.3l-0.9,0.5c-0.1,0.1-0.2,0.1-0.2,0
					c-0.1-0.1-0.1-0.2-0.1-0.3v-9.8l-2.1,1.2c-0.1,0.1-0.2,0.1-0.2,0c-0.1-0.1-0.1-0.2-0.1-0.3v-1.3c0-0.1,0-0.3,0.1-0.4
					c0-0.1,0.1-0.2,0.2-0.3L153.7,141.5z"/>
				<path class="st7" d="M158.8,138.7c1-0.6,1.7-0.6,2.2-0.2c0.6,0.7,0.9,1.6,0.8,2.5c0,0.8-0.1,1.7-0.4,2.5c-0.3,0.7-0.6,1.4-1.1,2
					l1.6,3.5c0,0.1,0,0.1,0,0.2c0,0.1,0,0.2-0.1,0.3c0,0.1-0.1,0.2-0.2,0.2l-1,0.6c-0.1,0.1-0.3,0.1-0.3,0c-0.1-0.1-0.1-0.1-0.2-0.2
					l-1.5-3.3l-1.6,0.9v4.2c0,0.1,0,0.3-0.1,0.4c0,0.1-0.1,0.2-0.2,0.3l-0.9,0.6c-0.1,0.1-0.2,0.1-0.2,0c-0.1-0.1-0.1-0.2-0.1-0.3
					v-11.5c0-0.1,0-0.3,0.1-0.4c0-0.1,0.1-0.2,0.2-0.3L158.8,138.7z M157.1,145.3l1.7-1c0.4-0.2,0.8-0.6,1.1-1
					c0.3-0.5,0.4-1,0.4-1.6c0-0.7-0.1-1.1-0.4-1.1c-0.4-0.1-0.8,0-1.1,0.3l-1.7,1V145.3z"/>
				<path class="st7" d="M169,143c0.1-0.1,0.2-0.1,0.2,0c0.1,0.1,0.1,0.2,0.1,0.3v1.3c0,0.1,0,0.3-0.1,0.4c0,0.1-0.1,0.2-0.2,0.3
					l-5.1,3c-0.1,0.1-0.2,0.1-0.2,0c-0.1-0.1-0.1-0.2-0.1-0.3v-11.6c0-0.1,0-0.3,0.1-0.4c0-0.1,0.1-0.2,0.2-0.3l5.1-2.9
					c0.1-0.1,0.2-0.1,0.2,0c0.1,0.1,0.1,0.2,0.1,0.3v1.3c0,0.1,0,0.3-0.1,0.4c0,0.1-0.1,0.2-0.2,0.3l-3.8,2.2v2.9l3.5-2
					c0.1-0.1,0.2-0.1,0.2,0c0.1,0.1,0.1,0.2,0.1,0.3v1.3c0,0.1,0,0.3-0.1,0.4c0,0.1-0.1,0.2-0.2,0.3l-3.5,2v3L169,143z"/>
				<path class="st7" d="M176.3,141.1c-0.1,0.1-0.2,0.1-0.3,0c-0.1,0-0.1-0.1-0.1-0.2l-3.3-5.6v7.3c0,0.1,0,0.3-0.1,0.4
					c0,0.1-0.1,0.2-0.2,0.3l-0.9,0.6c-0.1,0.1-0.2,0.1-0.2,0c-0.1-0.1-0.1-0.2-0.1-0.3v-11.5c0-0.1,0-0.3,0.1-0.4
					c0-0.1,0.1-0.2,0.2-0.3l0.8-0.5c0.1-0.1,0.2-0.1,0.3,0l0.1,0.2l3.3,5.6v-7.3c0-0.1,0-0.3,0.1-0.4c0-0.1,0.1-0.2,0.2-0.3l0.9-0.5
					c0.1-0.1,0.2-0.1,0.2,0c0.1,0.1,0.1,0.2,0.1,0.3V140c0,0.1,0,0.3-0.1,0.4c0,0.1-0.1,0.2-0.2,0.3L176.3,141.1z"/>
				<path class="st7" d="M182.7,124.9c0.4-0.3,1-0.5,1.5-0.5c0.4,0,0.8,0.1,1.1,0.4c0.3,0.3,0.5,0.7,0.6,1.2
					c0.2,0.6,0.3,1.3,0.3,1.9c0,0.9,0,1.8,0,2.7c0,0.7-0.1,1.5-0.3,2.2c-0.1,0.7-0.4,1.3-0.6,1.9c-0.3,0.6-0.6,1.1-1,1.6
					s-0.9,0.9-1.5,1.2l-3,1.7c-0.1,0.1-0.2,0.1-0.2,0c-0.1-0.1-0.1-0.2-0.1-0.3v-11.6c0-0.1,0-0.3,0.1-0.4c0-0.1,0.1-0.2,0.2-0.3
					L182.7,124.9z M184.6,128.6c0-0.3-0.1-0.7-0.1-1c-0.1-0.2-0.2-0.5-0.4-0.7c-0.2-0.2-0.4-0.2-0.6-0.2c-0.3,0-0.6,0.1-0.9,0.3
					l-1.6,0.9v8l1.6-0.9c0.3-0.2,0.6-0.4,0.8-0.7c0.2-0.3,0.4-0.6,0.6-0.9c0.2-0.3,0.3-0.7,0.4-1.1c0.1-0.4,0.1-0.8,0.1-1.2
					C184.7,130.4,184.7,129.5,184.6,128.6z"/>
				<path class="st7" d="M190.8,120c0.4-0.3,0.9-0.4,1.4-0.5c0.4,0,0.7,0.1,1,0.2c0.3,0.2,0.5,0.4,0.6,0.7s0.2,0.7,0.2,1
					c0,0.1,0,0.3-0.1,0.4c-0.1,0.1-0.1,0.2-0.2,0.3l-0.8,0.5c-0.1,0.1-0.2,0.1-0.3,0c-0.1-0.1-0.1-0.1-0.2-0.2
					c-0.1-0.2-0.3-0.4-0.5-0.5c-0.4,0-0.7,0.1-1,0.3c-0.2,0.1-0.4,0.3-0.6,0.4c-0.2,0.2-0.3,0.4-0.5,0.6c-0.1,0.2-0.2,0.4-0.3,0.7
					c-0.1,0.2-0.1,0.4-0.1,0.7c0,0.2,0,0.4,0.1,0.6c0.1,0.1,0.2,0.2,0.4,0.2c0.2,0,0.5,0,0.7,0l1.1-0.2c0.4-0.1,0.8-0.2,1.2-0.2
					c0.3,0,0.6,0.1,0.8,0.3c0.2,0.2,0.4,0.5,0.5,0.7c0.1,0.4,0.2,0.8,0.2,1.2c0,0.6-0.1,1.1-0.2,1.6c-0.1,0.6-0.4,1.1-0.7,1.6
					c-0.3,0.5-0.7,1-1.1,1.4c-0.4,0.4-0.9,0.8-1.4,1.1c-0.4,0.2-0.8,0.4-1.3,0.5c-0.4,0.1-0.7,0-1.1-0.1c-0.3-0.1-0.6-0.4-0.7-0.7
					c-0.2-0.4-0.3-0.8-0.3-1.3c0-0.1,0-0.3,0.1-0.4c0-0.1,0.1-0.2,0.2-0.3l0.8-0.5c0.1-0.1,0.2-0.1,0.3-0.1c0.1,0.1,0.1,0.1,0.2,0.2
					c0.1,0.1,0.1,0.2,0.2,0.4c0.1,0.1,0.2,0.2,0.3,0.2c0.2,0,0.3,0,0.5,0c0.3-0.1,0.5-0.2,0.7-0.3c0.2-0.1,0.5-0.3,0.7-0.5
					c0.2-0.2,0.4-0.4,0.6-0.6c0.2-0.2,0.3-0.5,0.4-0.7c0.1-0.2,0.2-0.5,0.1-0.8c0-0.2,0-0.4-0.2-0.6c-0.1-0.1-0.3-0.2-0.5-0.1
					c-0.3,0-0.6,0.1-0.8,0.1c-0.3,0.1-0.7,0.2-1.1,0.2c-0.3,0.1-0.7,0.1-1,0.1s-0.5-0.1-0.7-0.3c-0.2-0.2-0.4-0.5-0.4-0.8
					c-0.1-0.4-0.2-0.9-0.1-1.3c0-0.6,0.1-1.1,0.2-1.6c0.3-1.1,0.9-2.1,1.6-2.9C189.9,120.6,190.3,120.3,190.8,120z"/>
				<path class="st19" d="M107.5,255.6l99-57.2c0.6-0.3,1-0.1,1,0.5c-0.1,0.7-0.4,1.3-1,1.7l-99,57.1c-0.6,0.3-1,0.1-1-0.5
					C106.6,256.6,106.9,255.9,107.5,255.6z"/>
				<path class="st19" d="M107.5,262.1l99-57.1c0.6-0.3,1-0.1,1,0.5c-0.1,0.7-0.4,1.3-1,1.7l-99,57.1c-0.6,0.3-1,0.1-1-0.5
					C106.6,263.1,106.9,262.5,107.5,262.1z"/>
				<path class="st19" d="M107.5,268.5l98.9-57.1c0.6-0.3,1-0.1,1,0.5c-0.1,0.7-0.4,1.3-1,1.7l-98.9,57.1c-0.6,0.3-1,0.1-1-0.5
					C106.6,269.5,106.9,268.9,107.5,268.5z"/>
				<path class="st7" d="M113.2,293.7c0-0.1,0-0.1,0-0.2s0-0.1,0.1-0.2l1.3-2.3l0.1-0.2c0-0.1,0.1-0.1,0.2-0.2l0.7-0.4h0.1v0.1v6
					c0,0.1,0,0.1,0,0.2c0,0.1-0.1,0.1-0.1,0.1l-0.8,0.5h-0.1l-0.1-0.1v-4l-0.7,1.3l-0.1,0.1h-0.1L113.2,293.7z"/>
				<path class="st7" d="M118.2,288.7c0.2-0.2,0.5-0.2,0.8-0.2c0.2,0,0.4,0.1,0.5,0.2c0.2,0.2,0.3,0.4,0.3,0.6
					c0.1,0.3,0.1,0.6,0.1,0.9s0,0.5,0,0.8s0,0.6,0,0.8c0,0.3-0.1,0.7-0.1,1c-0.1,0.3-0.2,0.7-0.3,1c-0.1,0.3-0.3,0.6-0.5,0.9
					s-0.5,0.5-0.8,0.7c-0.2,0.1-0.5,0.2-0.8,0.2c-0.2,0-0.4-0.1-0.5-0.2c-0.2-0.2-0.3-0.4-0.3-0.6c-0.1-0.3-0.1-0.6-0.1-0.9
					s0-0.5,0-0.8s0-0.6,0-0.8c0-0.3,0.1-0.7,0.1-1c0.1-0.3,0.2-0.7,0.3-1c0.1-0.3,0.3-0.6,0.5-0.9
					C117.7,289.1,117.9,288.9,118.2,288.7z M118.9,292.4c0-0.5,0-1,0-1.5c0-0.1,0-0.3,0-0.4s0-0.2-0.1-0.3c0-0.1-0.1-0.1-0.2-0.1
					c-0.1,0-0.2,0-0.3,0.1s-0.2,0.2-0.3,0.3c-0.1,0.1-0.1,0.2-0.2,0.3c0,0.1-0.1,0.3-0.1,0.4c0,0.1,0,0.3,0,0.5c0,0.5,0,1,0,1.6
					c0,0.1,0,0.3,0,0.4c0,0.1,0.1,0.2,0.1,0.3c0,0.1,0.1,0.1,0.2,0.1c0.1,0,0.2,0,0.3-0.1c0.1-0.1,0.2-0.2,0.3-0.3s0.1-0.2,0.2-0.3
					c0.1-0.1,0.1-0.3,0.1-0.4C118.8,292.7,118.8,292.6,118.9,292.4L118.9,292.4z"/>
				<path class="st7" d="M122.3,287.7c0,0.2,0,0.5,0,0.7s0,0.4-0.1,0.6c0,0.2-0.1,0.3-0.2,0.5c-0.1,0.2-0.2,0.3-0.3,0.5
					c-0.1,0.1-0.3,0.2-0.4,0.3c-0.1,0.1-0.3,0.1-0.4,0.1c-0.1,0-0.2,0-0.3-0.1c-0.1-0.1-0.2-0.2-0.2-0.3c0-0.2-0.1-0.3-0.1-0.5
					c0-0.1,0-0.2,0-0.3c0-0.1,0-0.2,0-0.4c0-0.2,0-0.4,0.1-0.6c0-0.2,0.1-0.4,0.2-0.5c0.1-0.2,0.2-0.3,0.3-0.5
					c0.1-0.1,0.3-0.2,0.4-0.3c0.1-0.1,0.3-0.1,0.4-0.1c0.1,0,0.2,0,0.3,0.1c0.1,0.1,0.1,0.2,0.2,0.3
					C122.3,287.3,122.3,287.5,122.3,287.7z M123.8,285.7c0-0.1,0-0.1,0.1-0.2l0.1-0.1l0.5-0.3h0.1c0,0,0,0,0,0.1l0,0c0,0,0,0,0,0.1
					l-3,7.6c0,0.1,0,0.1-0.1,0.2l-0.1,0.1l-0.5,0.3h-0.1v-0.1l0,0v-0.1L123.8,285.7z M121.1,289c0,0.1,0,0.2,0.1,0.3
					c0,0.1,0.1,0.1,0.2,0c0.1,0,0.1-0.1,0.2-0.2c0-0.1,0.1-0.3,0.1-0.4c0-0.2,0-0.4,0-0.6c0-0.1,0-0.2-0.1-0.3c0-0.1-0.1-0.1-0.2,0
					c-0.1,0-0.2,0.1-0.2,0.2c0,0.1-0.1,0.3-0.1,0.4C121.1,288.6,121.1,288.8,121.1,289L121.1,289z M125.1,289.3c0,0.2,0,0.5,0,0.7
					s0,0.4-0.1,0.6c0,0.2-0.1,0.4-0.2,0.5c-0.1,0.2-0.2,0.3-0.3,0.5c-0.1,0.1-0.3,0.2-0.4,0.3c-0.1,0.1-0.3,0.1-0.4,0.1
					c-0.1,0-0.2,0-0.3-0.1c-0.1-0.1-0.1-0.2-0.2-0.3c0-0.2-0.1-0.3-0.1-0.5c0-0.1,0-0.2,0-0.4s0-0.2,0-0.4s0-0.4,0.1-0.6
					c0-0.2,0.1-0.3,0.2-0.5c0.1-0.2,0.2-0.3,0.3-0.5c0.1-0.1,0.3-0.3,0.4-0.3c0.1-0.1,0.3-0.1,0.4-0.1c0.1,0,0.2,0,0.3,0.1
					c0.1,0.1,0.1,0.2,0.2,0.3C125,289,125.1,289.1,125.1,289.3L125.1,289.3z M123.9,290.6c0,0.1,0,0.2,0.1,0.3c0,0.1,0.1,0.1,0.2,0
					c0.1-0.1,0.2-0.1,0.2-0.2c0-0.1,0.1-0.3,0.1-0.4c0-0.2,0-0.4,0-0.6c0-0.1,0-0.2-0.1-0.3c0-0.1-0.1-0.1-0.2,0
					c-0.1,0-0.2,0.1-0.2,0.2c0,0.1-0.1,0.3-0.1,0.4C123.9,290.2,123.9,290.4,123.9,290.6L123.9,290.6z"/>
				<path class="st1" d="M127.8,282.1l3.4-3.7c-0.8-3-2.3-5.2-4.2-6.4l-2.1,5.6C126.4,278.8,127.4,280.3,127.8,282.1z"/>
				<path class="st7" d="M119.6,271v7.9c1.3-0.7,2.8-0.8,4.1-0.3l0.5-1.3l2.1-5.6l0.5-1.2C124.7,269.5,122.2,269.6,119.6,271z"/>
				<path class="st1" d="M114.2,306.7l-2.1,5.6c2.2,0.9,4.7,0.7,6.7-0.5v-5.5C117.4,307.2,115.7,307.3,114.2,306.7z"/>
				<path class="st1" d="M118.8,278.3v-5.5c-2.7,1.9-5,4.4-6.7,7.2l2.1,3.2C115.4,281.2,116.9,279.5,118.8,278.3z"/>
				<path class="st1" d="M131.4,279.5l-3.4,3.7c0.2,1.2,0.3,2.4,0.3,3.5c0,1.3-0.1,2.6-0.3,3.9l3.4-0.3c0.3-1.9,0.5-3.8,0.5-5.7
					C131.9,283,131.7,281.2,131.4,279.5z"/>
				<path class="st1" d="M124.9,299.7l2.1,3.2c1.9-3.5,3.3-7.1,4.2-11l-3.4,0.3C127.2,294.7,126.2,297.3,124.9,299.7z"/>
				<path class="st1" d="M113.5,284.3l-2.1-3.2c-1.9,3.5-3.3,7.2-4.2,11.1l3.4-0.3C111.2,289.3,112.2,286.7,113.5,284.3z"/>
				<path class="st1" d="M110,297.3c0-1.3,0.1-2.6,0.3-3.9l-3.4,0.3c-0.3,1.9-0.5,3.8-0.5,5.7c0,1.7,0.2,3.4,0.5,5.1l3.4-3.7
					C110.1,299.6,110,298.5,110,297.3z"/>
				<path class="st1" d="M110.6,302l-3.4,3.7c0.8,3,2.3,5.2,4.2,6.4l2.1-5.6C112,305.3,111,303.7,110.6,302z"/>
				<path class="st1" d="M119.6,305.9v5.5c2.7-1.9,5-4.3,6.7-7.1l-2.1-3.2C123,302.9,121.5,304.6,119.6,305.9z"/>
				<path class="st1" d="M114.2,283.1l-2.1-3.2c-0.3,0.4-0.5,0.8-0.7,1.2l2.1,3.2C113.7,283.9,113.9,283.5,114.2,283.1z"/>
				<path class="st1" d="M110.6,292l-3.4,0.3c-0.1,0.5-0.2,1-0.3,1.5l3.4-0.3C110.4,292.9,110.5,292.5,110.6,292z"/>
				<path class="st1" d="M110.3,300.8l-3.4,3.7c0.1,0.4,0.2,0.8,0.3,1.1l3.4-3.7C110.5,301.6,110.4,301.2,110.3,300.8z"/>
				<path class="st1" d="M113.5,306.4l-2.1,5.6c0.2,0.1,0.5,0.3,0.7,0.4l2.1-5.6C114,306.6,113.7,306.5,113.5,306.4z"/>
				<path class="st1" d="M119.3,306.2l-0.4,0.2v5.5l0.4-0.2c0.2-0.1,0.3-0.2,0.4-0.3v-5.5L119.3,306.2z"/>
				<path class="st1" d="M124.2,300.9l2.1,3.2c0.3-0.4,0.5-0.8,0.7-1.2l-2.1-3.2C124.7,300.1,124.5,300.5,124.2,300.9z"/>
				<path class="st1" d="M127.8,292.1l3.4-0.3c0.1-0.5,0.2-1,0.3-1.5l-3.4,0.3C128,291.2,127.9,291.6,127.8,292.1z"/>
				<path class="st1" d="M128.1,283.2l3.4-3.7c-0.1-0.4-0.2-0.8-0.3-1.1l-3.4,3.7C127.9,282.4,128,282.8,128.1,283.2z"/>
				<g class="st23">
					<path class="st3" d="M127.8,282.1l3.4-3.7c-0.8-3-2.3-5.2-4.2-6.4l-2.1,5.6C126.4,278.8,127.4,280.3,127.8,282.1z"/>
					<path class="st3" d="M114.2,306.7l-2.1,5.6c2.2,0.9,4.7,0.7,6.7-0.5v-5.5C117.4,307.2,115.7,307.3,114.2,306.7z"/>
					<path class="st3" d="M118.8,278.3v-5.5c-2.7,1.9-5,4.4-6.7,7.2l2.1,3.2C115.4,281.2,116.9,279.5,118.8,278.3z"/>
					<path class="st3" d="M131.4,279.5l-3.4,3.7c0.2,1.2,0.3,2.4,0.3,3.5c0,1.3-0.1,2.6-0.3,3.9l3.4-0.3c0.3-1.9,0.5-3.8,0.5-5.7
						C131.9,283,131.7,281.2,131.4,279.5z"/>
					<path class="st3" d="M124.9,299.7l2.1,3.2c1.9-3.5,3.3-7.1,4.2-11l-3.4,0.3C127.2,294.7,126.2,297.3,124.9,299.7z"/>
					<path class="st3" d="M113.5,284.3l-2.1-3.2c-1.9,3.5-3.3,7.2-4.2,11.1l3.4-0.3C111.2,289.3,112.2,286.7,113.5,284.3z"/>
					<path class="st3" d="M110,297.3c0-1.3,0.1-2.6,0.3-3.9l-3.4,0.3c-0.3,1.9-0.5,3.8-0.5,5.7c0,1.7,0.2,3.4,0.5,5.1l3.4-3.7
						C110.1,299.6,110,298.5,110,297.3z"/>
					<path class="st3" d="M110.6,302l-3.4,3.7c0.8,3,2.3,5.2,4.2,6.4l2.1-5.6C112,305.3,111,303.7,110.6,302z"/>
					<path class="st3" d="M119.6,305.9v5.5c2.7-1.9,5-4.3,6.7-7.1l-2.1-3.2C123,302.9,121.5,304.6,119.6,305.9z"/>
					<path class="st3" d="M114.2,283.1l-2.1-3.2c-0.3,0.4-0.5,0.8-0.7,1.2l2.1,3.2C113.7,283.9,113.9,283.5,114.2,283.1z"/>
					<path class="st3" d="M110.6,292l-3.4,0.3c-0.1,0.5-0.2,1-0.3,1.5l3.4-0.3C110.4,292.9,110.5,292.5,110.6,292z"/>
					<path class="st3" d="M110.3,300.8l-3.4,3.7c0.1,0.4,0.2,0.8,0.3,1.1l3.4-3.7C110.5,301.6,110.4,301.2,110.3,300.8z"/>
					<path class="st3" d="M113.5,306.4l-2.1,5.6c0.2,0.1,0.5,0.3,0.7,0.4l2.1-5.6C114,306.6,113.7,306.5,113.5,306.4z"/>
					<path class="st3" d="M119.3,306.2l-0.4,0.2v5.5l0.4-0.2c0.2-0.1,0.3-0.2,0.4-0.3v-5.5L119.3,306.2z"/>
					<path class="st3" d="M124.2,300.9l2.1,3.2c0.3-0.4,0.5-0.8,0.7-1.2l-2.1-3.2C124.7,300.1,124.5,300.5,124.2,300.9z"/>
					<path class="st3" d="M127.8,292.1l3.4-0.3c0.1-0.5,0.2-1,0.3-1.5l-3.4,0.3C128,291.2,127.9,291.6,127.8,292.1z"/>
					<path class="st3" d="M128.1,283.2l3.4-3.7c-0.1-0.4-0.2-0.8-0.3-1.1l-3.4,3.7C127.9,282.4,128,282.8,128.1,283.2z"/>
				</g>
				<path class="st19" d="M107.5,323.1l25.2-14.5c0.6-0.3,1-0.1,1,0.5c0,0.7-0.4,1.3-1,1.7l-25.2,14.5c-0.6,0.3-1,0.1-1-0.5
					C106.6,324.1,106.9,323.5,107.5,323.1z"/>
				<path class="st19" d="M107.5,329.6l25.2-14.5c0.6-0.3,1-0.1,1,0.5c0,0.7-0.4,1.3-1,1.7l-25.2,14.5c-0.6,0.3-1,0.1-1-0.5
					C106.5,330.6,106.9,330,107.5,329.6z"/>
				<path class="st19" d="M107.5,336l25.2-14.5c0.6-0.3,1-0.1,1,0.5c0,0.7-0.4,1.3-1,1.7l-25.2,14.5c-0.6,0.3-1,0.1-1-0.5
					C106.6,337,106.9,336.4,107.5,336z"/>
				<path class="st19" d="M107.5,342.6l25.2-14.5c0.6-0.3,1-0.1,1,0.5c0,0.7-0.4,1.3-1,1.7l-25.2,14.4c-0.6,0.3-1,0.1-1-0.5
					C106.6,343.6,106.9,342.9,107.5,342.6z"/>
				<path class="st7" d="M153.2,270.6c0,0.2,0,0.4,0,0.5c-0.1,0.4-0.2,0.8-0.4,1.2c-0.1,0.2-0.2,0.4-0.4,0.7l-0.8,1.5l1.5-0.9h0.1
					v0.1v1c0,0.1,0,0.1,0,0.2c0,0.1-0.1,0.1-0.1,0.1l-3.2,1.8h-0.1v-0.1V276c0-0.1,0-0.2,0-0.3s0.1-0.2,0.1-0.3l1.8-3
					c0.1-0.2,0.2-0.4,0.3-0.6c0-0.1,0-0.3,0-0.4s0-0.1,0-0.2c0-0.1,0-0.1-0.1-0.2c0-0.1-0.1-0.1-0.1-0.1c-0.1,0-0.2,0-0.3,0.1
					c-0.1,0.1-0.2,0.1-0.3,0.2c-0.1,0.1-0.1,0.2-0.2,0.3c0,0.1-0.1,0.2-0.1,0.3v0.2c0,0.1,0,0.2-0.1,0.2c0,0.1-0.1,0.1-0.1,0.1
					l-0.7,0.4h-0.1l0,0v-0.1c0-0.3,0-0.6,0.1-0.8c0.1-0.3,0.2-0.6,0.3-0.9s0.3-0.6,0.5-0.8c0.2-0.2,0.5-0.5,0.7-0.6
					c0.2-0.1,0.5-0.2,0.7-0.2c0.2,0,0.4,0.1,0.5,0.2c0.1,0.1,0.3,0.3,0.3,0.5C153.2,270.1,153.2,270.4,153.2,270.6z"/>
				<path class="st7" d="M155.7,267c0.2-0.1,0.5-0.2,0.8-0.2c0.2,0,0.4,0.1,0.5,0.2c0.2,0.2,0.3,0.4,0.3,0.6
					c0.1,0.3,0.1,0.6,0.1,0.9s0,0.5,0,0.8s0,0.6,0,0.8c0,0.3-0.1,0.7-0.1,1c-0.1,0.3-0.2,0.7-0.3,1c-0.1,0.3-0.3,0.6-0.5,0.9
					c-0.2,0.3-0.5,0.5-0.8,0.6c-0.2,0.1-0.5,0.2-0.8,0.2c-0.2,0-0.4-0.1-0.5-0.2c-0.2-0.2-0.3-0.4-0.3-0.6c-0.1-0.3-0.1-0.6-0.1-0.9
					c0-0.3,0-0.5,0-0.8c0-0.3,0-0.6,0-0.8c0-0.3,0.1-0.7,0.1-1c0.1-0.3,0.2-0.7,0.3-1c0.1-0.3,0.3-0.6,0.5-0.9
					C155.1,267.4,155.4,267.2,155.7,267z M156.3,270.8c0-0.5,0-1.1,0-1.6c0-0.1,0-0.3,0-0.4s-0.1-0.2-0.1-0.3c0-0.1-0.1-0.1-0.2-0.1
					c-0.1,0-0.2,0-0.3,0.1s-0.2,0.2-0.3,0.3c-0.1,0.1-0.1,0.2-0.2,0.3c0,0.1-0.1,0.3-0.1,0.4c0,0.1,0,0.3,0,0.5c0,0.5,0,1.1,0,1.6
					c0,0.1,0,0.3,0,0.4c0,0.1,0.1,0.2,0.1,0.3c0,0.1,0.1,0.1,0.2,0.1c0.1,0,0.2,0,0.3-0.1c0.1-0.1,0.2-0.2,0.3-0.3
					c0.1-0.1,0.1-0.2,0.2-0.3c0.1-0.1,0.1-0.3,0.1-0.4C156.3,271.1,156.3,270.9,156.3,270.8L156.3,270.8z"/>
				<path class="st7" d="M159.8,266c0,0.2,0,0.5,0,0.7s0,0.4-0.1,0.5c0,0.2-0.1,0.4-0.2,0.5c-0.1,0.2-0.2,0.3-0.3,0.5
					c-0.1,0.1-0.3,0.2-0.4,0.3c-0.1,0.1-0.3,0.1-0.4,0.1c-0.1,0-0.2,0-0.3-0.1c-0.1-0.1-0.1-0.2-0.2-0.3c0-0.2-0.1-0.3-0.1-0.5
					c0-0.1,0-0.2,0-0.3c0-0.1,0-0.2,0-0.4c0-0.2,0-0.4,0.1-0.5c0-0.2,0.1-0.4,0.2-0.5c0.1-0.2,0.2-0.3,0.3-0.5
					c0.1-0.1,0.3-0.3,0.4-0.3c0.1-0.1,0.3-0.1,0.4-0.1c0.1,0,0.2,0,0.3,0.1c0.1,0.1,0.1,0.2,0.2,0.3
					C159.8,265.7,159.8,265.8,159.8,266z M161.2,264.1l0.1-0.2c0-0.1,0.1-0.1,0.1-0.1l0.5-0.3h0.1v0.1l0,0c0,0,0,0,0,0.1l-3,7.6
					c0,0.1,0,0.1-0.1,0.2l-0.1,0.1l-0.5,0.3h-0.1v-0.1l0,0c0,0,0,0,0-0.1L161.2,264.1z M158.6,267.3c0,0.1,0,0.2,0.1,0.3
					c0,0.1,0.1,0.1,0.2,0c0.1,0,0.2-0.1,0.2-0.2c0-0.1,0.1-0.3,0.1-0.4c0-0.2,0-0.4,0-0.6c0-0.1,0-0.2-0.1-0.3c0-0.1-0.1-0.1-0.2,0
					c-0.1,0.1-0.2,0.1-0.2,0.2c0,0.1-0.1,0.3-0.1,0.4C158.6,266.9,158.6,267.1,158.6,267.3L158.6,267.3z M162.5,267.6
					c0,0.2,0,0.5,0,0.7s0,0.4-0.1,0.5c0,0.2-0.1,0.4-0.2,0.5c-0.1,0.2-0.2,0.3-0.3,0.5c-0.1,0.1-0.3,0.3-0.4,0.3
					c-0.1,0.1-0.3,0.1-0.4,0.1c-0.1,0-0.2,0-0.3-0.1s-0.1-0.2-0.2-0.3c0-0.2-0.1-0.3-0.1-0.5c0-0.1,0-0.2,0-0.3c0-0.1,0-0.2,0-0.4
					s0-0.4,0.1-0.5c0-0.2,0.1-0.4,0.2-0.5c0.1-0.2,0.2-0.3,0.3-0.5c0.1-0.1,0.3-0.2,0.4-0.3c0.1-0.1,0.3-0.1,0.4-0.1
					c0.1,0,0.2,0,0.3,0.1c0.1,0.1,0.1,0.2,0.2,0.3C162.5,267.3,162.5,267.4,162.5,267.6L162.5,267.6z M161.3,269
					c0,0.1,0,0.2,0.1,0.3c0,0.1,0.1,0.1,0.2,0c0.1-0.1,0.2-0.1,0.2-0.2c0-0.1,0.1-0.3,0.1-0.4c0-0.2,0-0.4,0-0.6
					c0-0.1,0-0.2-0.1-0.3c0-0.1-0.1-0.1-0.2,0c-0.1,0-0.2,0.1-0.2,0.2s-0.1,0.3-0.1,0.4C161.3,268.6,161.3,268.8,161.3,269z"/>
				<path class="st1" d="M151.2,285.4l-2.1,5.6c2.2,0.9,4.7,0.7,6.7-0.5V285C154.4,285.8,152.7,286,151.2,285.4z"/>
				<path class="st1" d="M155.8,256.9v-5.5c-2.7,1.9-5,4.3-6.7,7.1l2.1,3.2C152.3,259.9,153.9,258.2,155.8,256.9z"/>
				<path class="st1" d="M168.4,258.2l-3.4,3.7c0.2,1.2,0.3,2.3,0.3,3.5c0,1.3-0.1,2.6-0.3,3.9l3.4-0.3c0.3-1.9,0.5-3.8,0.5-5.7
					C168.9,261.7,168.7,259.9,168.4,258.2z"/>
				<path class="st1" d="M161.9,278.4l2.1,3.2c1.9-3.5,3.3-7.2,4.1-11.1l-3.4,0.3C164.1,273.4,163.2,276,161.9,278.4z"/>
				<path class="st1" d="M150.4,263l-2.1-3.2c-1.9,3.5-3.3,7.2-4.1,11.1l3.4-0.3C148.2,267.9,149.1,265.4,150.4,263z"/>
				<path class="st1" d="M147,276c0-1.3,0.1-2.6,0.3-3.9l-3.4,0.3c-0.3,1.9-0.5,3.8-0.5,5.7c0,1.7,0.2,3.4,0.5,5.1l3.4-3.7
					C147.1,278.4,147,277.2,147,276z"/>
				<path class="st1" d="M147.6,280.6l-3.4,3.7c0.8,3,2.3,5.2,4.2,6.4l2.1-5.6C149,283.9,148,282.3,147.6,280.6z"/>
				<path class="st1" d="M156.7,284.5v5.5c2.7-1.9,5-4.4,6.7-7.1l-2.1-3.2C160.1,281.5,158.5,283.2,156.7,284.5z"/>
				<path class="st1" d="M151.2,261.8l-2.1-3.2c-0.3,0.4-0.5,0.8-0.7,1.2l2.1,3.2C150.7,262.6,150.9,262.2,151.2,261.8z"/>
				<path class="st1" d="M147.6,270.6l-3.4,0.3c-0.1,0.5-0.2,1-0.3,1.5l3.4-0.3C147.4,271.6,147.5,271.1,147.6,270.6z"/>
				<path class="st1" d="M147.3,279.4l-3.4,3.7c0.1,0.4,0.2,0.8,0.3,1.1l3.4-3.7C147.5,280.2,147.4,279.8,147.3,279.4z"/>
				<path class="st1" d="M150.4,285l-2.1,5.6c0.2,0.2,0.5,0.3,0.7,0.4l2.1-5.6C150.9,285.3,150.7,285.1,150.4,285z"/>
				<path class="st1" d="M156.2,284.8c-0.1,0.1-0.3,0.1-0.4,0.2v5.5l0.4-0.2l0.4-0.3v-5.5C156.5,284.6,156.4,284.7,156.2,284.8z"/>
				<path class="st1" d="M161.2,279.5l2.1,3.2c0.3-0.4,0.5-0.8,0.7-1.2l-2.1-3.2C161.7,278.8,161.4,279.1,161.2,279.5z"/>
				<path class="st1" d="M164.7,270.7l3.4-0.3c0.1-0.5,0.2-1,0.3-1.5l-3.4,0.3C164.9,269.8,164.8,270.2,164.7,270.7z"/>
				<path class="st7" d="M164.4,249.6c-0.2-0.1-0.5-0.3-0.7-0.4c-2.1-1-4.5-0.8-7.1,0.6v7.8c1.3-0.7,2.8-0.8,4.1-0.3
					c0.3,0.1,0.5,0.2,0.7,0.4c1.3,1,2.2,2.4,2.6,4l0.8-0.8l3.4-3.7l0.7-0.8C168,253.1,166.4,250.8,164.4,249.6z"/>
				<path class="st19" d="M144.5,301.8l25.2-14.5c0.6-0.3,1-0.1,1,0.5c0,0.7-0.4,1.3-1,1.7L144.5,304c-0.6,0.3-1,0.1-1-0.5
					C143.5,302.8,143.9,302.2,144.5,301.8z"/>
				<path class="st19" d="M144.5,308.2l25.2-14.5c0.6-0.3,1-0.1,1,0.5c0,0.7-0.4,1.3-1,1.7l-25.2,14.5c-0.6,0.3-1,0.1-1-0.5
					C143.5,309.2,143.9,308.6,144.5,308.2z"/>
				<path class="st19" d="M144.5,314.7l25.2-14.5c0.6-0.3,1-0.1,1,0.5c0,0.7-0.4,1.3-1,1.7l-25.2,14.5c-0.6,0.3-1,0.1-1-0.5
					C143.5,315.7,143.9,315.1,144.5,314.7z"/>
				<path class="st19" d="M144.5,321.2l25.2-14.5c0.6-0.3,1-0.1,1,0.5c0,0.7-0.4,1.3-1,1.7l-25.2,14.5c-0.6,0.3-1,0.1-1-0.5
					C143.5,322.2,143.9,321.5,144.5,321.2z"/>
				<path class="st7" d="M190.3,247.1L190.3,247.1L190.3,247.1l0.1,1.1c0,0.1,0,0.1,0,0.2l-0.1,0.2l-0.7,1.6c0.3-0.1,0.6,0,0.8,0.2
					c0.2,0.3,0.3,0.6,0.3,1c0,0.6-0.2,1.3-0.5,1.8c-0.3,0.5-0.8,1-1.3,1.3c-0.2,0.1-0.5,0.2-0.8,0.3c-0.2,0-0.4,0-0.6-0.1
					s-0.3-0.2-0.4-0.4c-0.1-0.2-0.1-0.4-0.1-0.6c0-0.1,0-0.1,0-0.2l0.1-0.1l0.8-0.4c0.1,0,0.1,0,0.2,0l0.1,0.1
					c0.1,0,0.1,0.1,0.2,0.1s0.3,0,0.4-0.1c0.2-0.1,0.4-0.3,0.5-0.4c0.1-0.2,0.2-0.4,0.2-0.6c0-0.2-0.1-0.3-0.2-0.4
					c-0.2,0-0.3,0-0.5,0.1l-0.5,0.3h-0.1v-0.1v-0.8c0-0.1,0-0.1,0-0.2l0.1-0.2l0.6-1.4l-1.6,0.9h-0.1l-0.1-0.1v-1
					c0-0.1,0-0.1,0.1-0.2c0-0.1,0.1-0.1,0.1-0.1L190.3,247.1z"/>
				<path class="st7" d="M193,245.4c0.2-0.2,0.5-0.2,0.8-0.3c0.2,0,0.4,0.1,0.5,0.2c0.2,0.2,0.3,0.4,0.3,0.6
					c0.1,0.3,0.1,0.6,0.1,0.9c0,0.3,0,0.5,0,0.8s0,0.6,0,0.8c0,0.3-0.1,0.7-0.1,1c-0.1,0.3-0.2,0.7-0.3,1c-0.1,0.3-0.3,0.6-0.5,0.9
					c-0.2,0.3-0.5,0.5-0.8,0.6c-0.2,0.2-0.5,0.2-0.8,0.3c-0.2,0-0.4-0.1-0.5-0.2c-0.2-0.2-0.3-0.4-0.3-0.6c-0.1-0.3-0.1-0.6-0.1-0.9
					c0-0.3,0-0.5,0-0.8s0-0.6,0-0.8c0-0.3,0.1-0.7,0.1-1c0.1-0.3,0.2-0.7,0.3-1c0.1-0.3,0.3-0.6,0.5-0.9
					C192.5,245.8,192.7,245.6,193,245.4z M193.7,249.2c0-0.5,0-1,0-1.6c0-0.1,0-0.3,0-0.4c0-0.1,0-0.2-0.1-0.3
					c0-0.1-0.1-0.1-0.2-0.1c-0.1,0-0.2,0-0.3,0.1c-0.1,0.1-0.2,0.2-0.3,0.3s-0.1,0.2-0.2,0.3c0,0.1-0.1,0.3-0.1,0.4
					c0,0.1,0,0.3,0,0.4c0,0.5,0,1,0,1.6c0,0.1,0,0.3,0,0.4s0.1,0.2,0.1,0.3s0.1,0.1,0.2,0.1c0.1,0,0.2,0,0.3-0.1
					c0.1-0.1,0.2-0.2,0.3-0.3c0.1-0.1,0.2-0.2,0.2-0.3c0.1-0.1,0.1-0.3,0.1-0.4C193.7,249.5,193.7,249.3,193.7,249.2L193.7,249.2z"
					/>
				<path class="st7" d="M197.2,244.4c0,0.2,0,0.5,0,0.7s0,0.4-0.1,0.6c0,0.2-0.1,0.4-0.2,0.5c-0.1,0.2-0.2,0.3-0.3,0.4
					c-0.1,0.1-0.2,0.3-0.4,0.3c-0.1,0.1-0.3,0.1-0.4,0.1c-0.1,0-0.2,0-0.3-0.1c-0.1-0.1-0.1-0.2-0.2-0.3c0-0.2-0.1-0.3-0.1-0.5
					c0-0.1,0-0.2,0-0.3c0-0.1,0-0.2,0-0.4c0-0.2,0-0.4,0.1-0.6c0-0.2,0.1-0.4,0.2-0.5c0.1-0.2,0.2-0.3,0.3-0.4
					c0.1-0.1,0.3-0.3,0.4-0.3c0.1-0.1,0.3-0.1,0.4-0.1c0.1,0,0.2,0,0.3,0.1c0.1,0.1,0.1,0.2,0.2,0.3
					C197.2,244.1,197.2,244.2,197.2,244.4z M198.7,242.4c0-0.1,0-0.1,0.1-0.2l0.1-0.1l0.5-0.3h0.1v0.1l0,0c0,0,0,0,0,0.1l-3,7.7
					c0,0.1,0,0.1-0.1,0.2l-0.1,0.1l-0.5,0.3h-0.1v-0.1l0,0c0,0,0,0,0-0.1L198.7,242.4z M196,245.7c0,0.1,0,0.2,0.1,0.3
					c0,0.1,0.1,0.1,0.2,0c0.1-0.1,0.1-0.1,0.2-0.2c0-0.1,0.1-0.3,0.1-0.4c0-0.2,0-0.4,0-0.6c0-0.1,0-0.2-0.1-0.3
					c0-0.1-0.1-0.1-0.2,0c-0.1,0.1-0.2,0.1-0.2,0.2c0,0.1-0.1,0.3-0.1,0.4C196,245.3,196,245.5,196,245.7L196,245.7z M200,246
					c0,0.2,0,0.5,0,0.7c0,0.2,0,0.4-0.1,0.6c0,0.2-0.1,0.4-0.2,0.5c-0.1,0.2-0.2,0.3-0.3,0.4c-0.1,0.1-0.3,0.3-0.4,0.3
					c-0.1,0.1-0.3,0.1-0.4,0.1s-0.2,0-0.3-0.1s-0.1-0.2-0.2-0.3c0-0.2-0.1-0.3-0.1-0.5c0-0.1,0-0.2,0-0.3c0-0.1,0-0.2,0-0.4
					c0-0.2,0-0.4,0.1-0.6c0-0.2,0.1-0.4,0.2-0.5c0.1-0.2,0.2-0.3,0.3-0.4c0.1-0.1,0.3-0.2,0.4-0.3c0.1-0.1,0.3-0.1,0.4-0.1
					s0.2,0,0.3,0.1s0.1,0.2,0.2,0.3C200,245.7,200,245.8,200,246L200,246z M198.8,247.3c0,0.1,0,0.2,0.1,0.3c0,0.1,0.1,0.1,0.2,0
					c0.1,0,0.2-0.1,0.2-0.2c0-0.1,0.1-0.3,0.1-0.4c0-0.2,0-0.4,0-0.6c0-0.1,0-0.2-0.1-0.3c0-0.1-0.1-0.1-0.2,0
					c-0.1,0-0.2,0.1-0.2,0.2c0,0.1-0.1,0.3-0.1,0.4C198.8,247,198.8,247.2,198.8,247.3L198.8,247.3z"/>
				<path class="st1" d="M188.2,264l-2.1,5.7c2.2,0.9,4.7,0.7,6.7-0.5v-5.5C191.3,264.5,189.6,264.6,188.2,264z"/>
				<path class="st1" d="M192.7,235.5V230c-2.7,1.9-5,4.4-6.7,7.1l2.1,3.2C189.3,238.4,190.9,236.8,192.7,235.5z"/>
				<path class="st1" d="M199,257l2.1,3.2c1.9-3.5,3.3-7.2,4.1-11.1l-3.4,0.3C201.2,252,200.3,254.5,199,257z"/>
				<path class="st1" d="M187.5,241.6l-2.1-3.2c-1.9,3.5-3.3,7.2-4.1,11.1l3.4-0.3C185.2,246.6,186.2,244,187.5,241.6z"/>
				<path class="st1" d="M184,254.6c0-1.3,0.1-2.6,0.3-3.9l-3.4,0.3c-0.3,1.9-0.5,3.8-0.5,5.7c0,1.7,0.2,3.4,0.5,5.1l3.4-3.7
					C184.1,256.9,184,255.7,184,254.6z"/>
				<path class="st1" d="M184.6,259.2l-3.4,3.7c0.8,3,2.3,5.2,4.1,6.4l2.1-5.6C186.1,262.5,185.1,261,184.6,259.2z"/>
				<path class="st1" d="M193.6,263.1v5.5c2.7-1.9,5-4.4,6.7-7.1l-2.1-3.2C197.1,260.1,195.5,261.8,193.6,263.1z"/>
				<path class="st1" d="M188.2,240.4l-2.1-3.2l-0.7,1.2l2.1,3.2C187.7,241.2,188,240.8,188.2,240.4z"/>
				<path class="st1" d="M184.6,249.3l-3.4,0.3c-0.1,0.5-0.2,1-0.3,1.5l3.4-0.3C184.4,250.2,184.6,249.8,184.6,249.3z"/>
				<path class="st1" d="M184.4,258.1l-3.4,3.7c0.1,0.4,0.2,0.8,0.3,1.1l3.4-3.7C184.6,258.9,184.4,258.5,184.4,258.1z"/>
				<path class="st1" d="M187.5,263.6l-2.1,5.6c0.2,0.1,0.5,0.3,0.7,0.4l2.1-5.7C188,263.9,187.7,263.8,187.5,263.6z"/>
				<path class="st1" d="M193.2,263.4c-0.1,0.1-0.3,0.2-0.4,0.2v5.5l0.4-0.2l0.4-0.3v-5.5L193.2,263.4z"/>
				<path class="st1" d="M198.2,258.2l2.1,3.2c0.3-0.4,0.5-0.8,0.7-1.2l-2.1-3.2C198.7,257.4,198.5,257.8,198.2,258.2z"/>
				<path class="st7" d="M206.1,236.1c-0.1-0.4-0.2-0.8-0.3-1.1c-0.9-3.2-2.4-5.6-4.4-6.8c-0.2-0.1-0.5-0.3-0.7-0.4
					c-2.1-1-4.5-0.8-7.1,0.6v7.8c1.3-0.7,2.8-0.8,4.1-0.3c0.3,0.1,0.5,0.2,0.7,0.4c1.3,1,2.2,2.4,2.6,4c0.1,0.4,0.2,0.8,0.3,1.1
					c0.2,1,0.3,2.1,0.3,3.2c0,1.2-0.1,2.4-0.3,3.5l0.8-0.1l3.4-0.3l0.7-0.1c0.3-2,0.5-4.1,0.5-6.1
					C206.6,239.7,206.5,237.8,206.1,236.1z"/>
				<g class="st24">
					<path d="M188.2,264l-2.1,5.7c2.2,0.9,4.7,0.7,6.7-0.5v-5.5C191.3,264.5,189.6,264.6,188.2,264z"/>
					<path d="M192.7,235.5V230c-2.7,1.9-5,4.4-6.7,7.1l2.1,3.2C189.3,238.4,190.9,236.8,192.7,235.5z"/>
					<path d="M199,257l2.1,3.2c1.9-3.5,3.3-7.2,4.1-11.1l-3.4,0.3C201.2,252,200.3,254.5,199,257z"/>
					<path d="M187.5,241.6l-2.1-3.2c-1.9,3.5-3.3,7.2-4.1,11.1l3.4-0.3C185.2,246.6,186.2,244,187.5,241.6z"/>
					<path d="M184,254.6c0-1.3,0.1-2.6,0.3-3.9l-3.4,0.3c-0.3,1.9-0.5,3.8-0.5,5.7c0,1.7,0.2,3.4,0.5,5.1l3.4-3.7
						C184.1,256.9,184,255.7,184,254.6z"/>
					<path d="M184.6,259.2l-3.4,3.7c0.8,3,2.3,5.2,4.1,6.4l2.1-5.6C186.1,262.5,185.1,261,184.6,259.2z"/>
					<path d="M193.6,263.1v5.5c2.7-1.9,5-4.4,6.7-7.1l-2.1-3.2C197.1,260.1,195.5,261.8,193.6,263.1z"/>
					<path d="M188.2,240.4l-2.1-3.2l-0.7,1.2l2.1,3.2C187.7,241.2,188,240.8,188.2,240.4z"/>
					<path d="M184.6,249.3l-3.4,0.3c-0.1,0.5-0.2,1-0.3,1.5l3.4-0.3C184.4,250.2,184.6,249.8,184.6,249.3z"/>
					<path d="M184.4,258.1l-3.4,3.7c0.1,0.4,0.2,0.8,0.3,1.1l3.4-3.7C184.6,258.9,184.4,258.5,184.4,258.1z"/>
					<path d="M187.5,263.6l-2.1,5.6c0.2,0.1,0.5,0.3,0.7,0.4l2.1-5.7C188,263.9,187.7,263.8,187.5,263.6z"/>
					<path d="M193.2,263.4c-0.1,0.1-0.3,0.2-0.4,0.2v5.5l0.4-0.2l0.4-0.3v-5.5L193.2,263.4z"/>
					<path d="M198.2,258.2l2.1,3.2c0.3-0.4,0.5-0.8,0.7-1.2l-2.1-3.2C198.7,257.4,198.5,257.8,198.2,258.2z"/>
				</g>
				<path class="st19" d="M181.4,280.4l25.2-14.5c0.6-0.3,1-0.1,1,0.5c-0.1,0.7-0.4,1.3-1,1.7l-25.2,14.5c-0.6,0.3-1,0.1-1-0.5
					C180.5,281.4,180.8,280.8,181.4,280.4z"/>
				<path class="st19" d="M181.4,286.9l25.2-14.5c0.6-0.3,1-0.1,1,0.5c-0.1,0.7-0.4,1.3-1,1.7l-25.2,14.5c-0.6,0.3-1,0.1-1-0.5
					C180.5,287.9,180.8,287.3,181.4,286.9z"/>
				<path class="st19" d="M181.4,293.4l25.2-14.5c0.6-0.3,1-0.1,1,0.5c-0.1,0.7-0.4,1.3-1,1.7l-25.2,14.5c-0.6,0.3-1,0.1-1-0.5
					C180.5,294.3,180.8,293.7,181.4,293.4z"/>
				<path class="st19" d="M181.4,299.9l25.2-14.5c0.6-0.3,1-0.1,1,0.5c-0.1,0.7-0.4,1.3-1,1.7l-25.2,14.5c-0.6,0.3-1,0.1-1-0.5
					C180.5,300.9,180.8,300.2,181.4,299.9z"/>
			</g>
		</g>
	</g>
</g>
</svg>
